<?xml version="1.0" encoding="UTF-8"?>
<svg id="Layer_1" data-name="Layer 1" xmlns="http://www.w3.org/2000/svg" viewBox="0 0 48 48.01">
  <defs>
    <style>
      .cls-1 {
        fill: #002c50;
        stroke-width: 0px;
      }
    </style>
  </defs>
  <path class="cls-1" d="M46.88,1.67h-30.83L1.04,19.58h4.44v27.24h2v-27.24h26.93l6.69-9.6v37.01h2V7.1l3.79-5.43ZM43.05,3.67l-4.12,5.91h-12.9l4.13-5.91h12.89ZM16.98,3.67h10.74l-4.13,5.91h-11.57l4.96-5.91ZM10.35,11.58h11.84l-4.19,6H5.32l5.03-6ZM33.36,17.58h-12.92l4.19-6h12.9l-4.18,6Z"/>
  <path class="cls-1" d="M31.43,35.91l-.72-.16c-.14-.03-3.29-.69-5.54,1.12v-2.9c.87-.71,2.45-2.29,2.6-4.49.14-1.95-.86-3.85-2.95-5.64l-.6-.51-.64.46c-.12.08-2.87,2.1-2.99,5.14-.07,1.81.8,3.54,2.58,5.14v2.97c-1.29-1.15-3.11-1.64-5.44-1.46l-.74.06-.16.72c-.03.14-.73,3.44,1.24,5.7,1.12,1.29,2.83,1.94,5.08,1.94,0,0,.02,0,.02,0v2.67h2v-2.63c1.22-.01,3.1-.27,4.53-1.59,1.4-1.29,2-3.25,1.8-5.8l-.06-.74ZM22.59,29.02c.05-1.33.94-2.45,1.56-3.07,1.15,1.15,1.69,2.29,1.62,3.39-.09,1.29-1,2.32-1.64,2.89h-.02c-1.05-1.06-1.57-2.14-1.53-3.21ZM18.7,37.54c1.5,0,2.63.4,3.36,1.19.74.79.98,1.87,1.05,2.72-.01.18-.02.36-.02.55-1.6-.01-2.78-.43-3.49-1.24-.85-.98-.93-2.37-.89-3.21ZM28.35,40.97c-.95.88-2.3,1.06-3.18,1.07v-1.2c.16-1.02.55-1.81,1.15-2.34.98-.85,2.37-.93,3.21-.89,0,1.5-.4,2.63-1.19,3.36Z"/>
</svg>