<?xml version="1.0" encoding="UTF-8"?>
<svg id="Layer_1" data-name="Layer 1" xmlns="http://www.w3.org/2000/svg" viewBox="0 0 48 48.01">
  <defs>
    <style>
      .cls-1 {
        fill: #002c50;
        stroke-width: 0px;
      }
    </style>
  </defs>
  <path class="cls-1" d="M21.54,2.43H7.83L1.82,36.05h5.46v9.73h2v-9.73h11.01v9.73h2v-9.73h5.55L21.54,2.43ZM15.97,14.22h5.75l1.39,7.41h-7.14v-7.41ZM13.97,21.63h-7.54l1.32-7.41h6.22v7.41ZM23.48,23.63l1.95,10.42h-9.46v-10.42h7.51ZM21.34,12.22h-5.37v-7.79h3.91l1.46,7.79ZM13.97,4.43v7.79h-5.86l1.39-7.79h4.47ZM6.07,23.63h7.9v10.42H4.21l1.86-10.42Z"/>
  <path class="cls-1" d="M46.26,27.98l-.06-.74-.72-.16c-.14-.03-3.35-.7-5.6,1.16v-2.84c1.22-.01,3.1-.28,4.53-1.59,1.4-1.29,2-3.25,1.8-5.8l-.06-.74-.72-.16c-.09-.02-1.57-.33-3.22.03.14-.41.24-.84.27-1.3.13-1.95-.86-3.85-2.95-5.64l-.6-.51-.64.46c-.12.08-2.87,2.1-2.99,5.14-.03.64.08,1.28.28,1.9-.92-.25-1.97-.34-3.15-.24l-.74.06-.16.72c-.03.14-.73,3.44,1.24,5.7,1.12,1.29,2.83,1.94,5.08,1.94,0,0,.01,0,.02,0v2.95c-1.28-1.11-3.08-1.58-5.38-1.4l-.74.06-.16.72c-.03.14-.73,3.44,1.24,5.7,1.12,1.28,2.81,1.93,5.04,1.94v10.54h2v-10.51c1.22,0,3.14-.26,4.59-1.59,1.4-1.29,2-3.25,1.8-5.8ZM44.24,18.98c0,1.5-.4,2.63-1.19,3.36-.95.88-2.3,1.06-3.18,1.07v-.02h-.05c0-.16,0-.32-.01-.5.09-1.36.48-2.38,1.21-3.02.98-.85,2.36-.94,3.21-.89ZM38.86,12.3c1.15,1.15,1.7,2.29,1.62,3.39-.08,1.29-1.01,2.33-1.65,2.9-1.06-1.06-1.57-2.14-1.54-3.21.05-1.33.94-2.45,1.56-3.07ZM33.41,18.9c1.5,0,2.63.4,3.36,1.19.74.79.98,1.87,1.05,2.72-.01.18-.02.36-.02.55-1.6-.01-2.78-.43-3.49-1.24-.85-.98-.93-2.37-.89-3.21ZM33.46,28.87c1.5,0,2.63.4,3.36,1.19.74.79.98,1.87,1.05,2.72-.01.18-.02.36-.02.55-1.6-.01-2.78-.43-3.49-1.24-.85-.98-.93-2.37-.89-3.21ZM43.12,32.3c-.96.89-2.34,1.06-3.23,1.07,0-.16,0-.33-.01-.52.09-1.35.48-2.38,1.21-3.02.98-.86,2.37-.94,3.21-.89,0,1.5-.4,2.63-1.19,3.36Z"/>
</svg>