<?xml version="1.0" encoding="UTF-8"?>
<svg id="Layer_1" data-name="Layer 1" xmlns="http://www.w3.org/2000/svg" viewBox="0 0 48 48.01">
  <defs>
    <style>
      .cls-1 {
        fill: #002c50;
        stroke-width: 0px;
      }
    </style>
  </defs>
  <path class="cls-1" d="M25.25,44.5v-20.61c1.46-.26,2.72-1.07,3.57-2.22l9.22,5.31,1-1.73-9.32-5.36c.15-.51.23-1.05.23-1.6,0-2.8-2.04-5.14-4.71-5.61V1.27h-2v11.4c-2.67.47-4.71,2.81-4.71,5.61,0,.65.11,1.26.31,1.84l-9.05,5.22,1,1.73,9.01-5.2c.85,1.04,2.05,1.77,3.43,2.02v20.61H5.62v2h37.27v-2h-17.64ZM20.55,18.28c0-2.04,1.66-3.71,3.71-3.71s3.71,1.66,3.71,3.71-1.66,3.71-3.71,3.71-3.71-1.66-3.71-3.71Z"/>
</svg>
