<?xml version="1.0" encoding="UTF-8"?>
<svg xmlns="http://www.w3.org/2000/svg" viewBox="0 0 576.24 526.08">
  <defs>
    <style>
      .cls-1 {
        letter-spacing: 0em;
      }

      .cls-2 {
        fill: #2348c3;
        font-family: Roboto-Bold, Roboto;
        font-size: 49.72px;
        font-weight: 700;
      }

      .cls-3, .cls-4, .cls-5, .cls-6, .cls-7, .cls-8 {
        opacity: .8;
      }

      .cls-3, .cls-4, .cls-5, .cls-6, .cls-9, .cls-10 {
        stroke-width: 0px;
      }

      .cls-3, .cls-6, .cls-10 {
        fill: #0f47ff;
      }

      .cls-4 {
        fill: #aec1ff;
      }

      .cls-4, .cls-5, .cls-6, .cls-7, .cls-9 {
        fill-rule: evenodd;
      }

      .cls-5 {
        fill: #537bff;
      }

      .cls-11 {
        letter-spacing: 0em;
      }

      .cls-7 {
        fill: none;
        stroke: #0f47ff;
        stroke-miterlimit: 10;
        stroke-width: 10px;
      }

      .cls-9 {
        fill: #e2e8fd;
      }
    </style>
  </defs>
  <g id="Layer_2" data-name="Layer 2">
    <path class="cls-5" d="M217.74,27.56h24.56s7.62.32,7.62,7.62-10.16,22.02-10.16,22.02c0,0-5.78,10.33,3.39,13.55s168.56,120.28,168.56,120.28c0,0,7.62,8.47,7.62,20.33v41.51l-29.22,29.22s-4.66,9.74-2.96,17.36,18.64,52.52,24.56,59.29c0,0,4.24,5.08,10.16,6.78,5.93,1.69,34.73,10.16,34.73,10.16,0,0,9.32,1.69,8.47,12.71s0,77.08,0,77.08c0,0,1.69,10.16,10.16,10.16s6.78,12.71,6.78,12.71c0,0-.78,19.63-8.47,25.41,0,0-10.16,3.39-22.87,3.39s-265.96-63.12-274.45-68.61c0,0-11.01-5.93-17.79-22.87-6.78-16.94-45.74-137.22-45.74-137.22,0,0-1.68-1.8-15.25-7.62-13.56-5.82-25.41-7.62-18.64-25.41,0,0,22.02-44.89,27.95-57.6s22.02-5.08,36.42-12.71,9.32-29.65,9.32-29.65c0,0-7.62-6.78-14.4-.85s-13.55,13.55-16.94,6.78c-3.39-6.78-18.84-28.98-9.32-33.04s88.94-90.64,94.87-94.02,5.08-8.47,11.01-6.78Z"/>
    <path class="cls-4" d="M202.49,13.16h24.56s7.62.32,7.62,7.62-10.16,22.02-10.16,22.02c0,0-5.78,10.33,3.39,13.55,9.17,3.23,168.56,120.28,168.56,120.28,0,0,7.62,8.47,7.62,20.33v41.51l-29.22,29.22s-4.66,9.74-2.96,17.36,18.64,52.52,24.56,59.29c0,0,4.24,5.08,10.16,6.78,5.93,1.69,34.73,10.16,34.73,10.16,0,0,9.32,1.69,8.47,12.71s0,77.08,0,77.08c0,0,1.69,10.16,10.16,10.16s6.78,12.71,6.78,12.71c0,0-.78,19.63-8.47,25.41,0,0-10.16,3.39-22.87,3.39s-265.96-63.12-274.45-68.61c0,0-11.01-5.93-17.79-22.87-6.78-16.94-45.74-137.22-45.74-137.22,0,0-1.68-1.8-15.25-7.62-13.56-5.82-25.41-7.62-18.64-25.41,0,0,22.02-44.89,27.95-57.6s22.02-5.08,36.42-12.71,9.32-29.65,9.32-29.65c0,0-7.62-6.78-14.4-.85-6.78,5.93-13.55,13.55-16.94,6.78-3.39-6.78-18.84-28.98-9.32-33.04S185.55,23.33,191.48,19.94s5.08-8.47,11.01-6.78Z"/>
  </g>
  <g id="Layer_3" data-name="Layer 3">
    <path class="cls-7" d="M235.52-9.71v30.49s-9.32,13.55-11.01,22.02c-1.69,8.47,10.16,16.09,10.16,16.09l161.79,117.74s7.62,6.78,7.62,20.33-.85,33.88-.85,33.88c0,0,2.54,5.93-6.78,13.55-9.32,7.62-21.6,23.29-21.6,23.29,0,0-2.96,12.28-2.96,17.36s20.33,53.36,20.33,53.36c0,0,0,9.32,10.16,11.01s38.96,11.86,38.96,11.86c0,0,8.47,1.69,8.47,12.71s-.85,72-.85,72c0,0,.85,11.86,5.93,13.55,0,0,16.94,3.39,36.42,4.24"/>
  </g>
  <g id="Layer_4" data-name="Layer 4">
    <g class="cls-8">
      <path class="cls-10" d="M291.63,166.96l-20.03,11.56,20.03,11.56,20.03-11.56-20.03-11.56Z"/>
      <path class="cls-10" d="M271.12,179.36v32.74l20.03,11.56v-32.74l-20.03-11.56ZM277.01,210.34l-3.92-2.26v-6.24l3.92,2.26v6.24ZM277.01,201.81l-3.92-2.26v-6.24l3.92,2.26v6.25ZM277.01,193.27l-3.92-2.26v-6.24l3.92,2.26v6.24ZM283.15,213.88l-3.92-2.26v-6.24l3.92,2.26v6.24ZM283.15,205.35l-3.92-2.26v-6.24l3.92,2.26v6.24ZM283.15,196.81l-3.92-2.26v-6.24l3.92,2.26v6.24ZM289.3,217.43l-3.93-2.27v-6.24l3.93,2.27v6.24ZM289.3,208.89l-3.93-2.27v-6.24l3.93,2.27v6.24ZM289.3,200.36l-3.93-2.27v-6.24l3.93,2.27v6.24Z"/>
      <path class="cls-10" d="M292.12,190.93v32.74l8-4.62v-11.41s3.92-2.26,3.92-2.26v11.41l8.11-4.69v-32.73l-20.03,11.57ZM306.25,204.1l3.92-2.26v6.24l-3.92,2.26v-6.24ZM306.25,195.56l3.92-2.26v6.24l-3.92,2.26v-6.25ZM306.25,187.03l3.92-2.26v6.24l-3.92,2.26v-6.24ZM300.12,199.1l3.92-2.26v6.24l-3.92,2.26v-6.24ZM300.12,190.57l3.92-2.26v6.24l-3.92,2.26v-6.24ZM293.97,211.19l3.93-2.27v6.24l-3.93,2.27v-6.24ZM293.97,202.65l3.93-2.27v6.24l-3.93,2.27v-6.24ZM293.97,194.12l3.93-2.27v6.24l-3.93,2.27v-6.24Z"/>
      <path class="cls-10" d="M301.09,215.07l1.98,1.15v-9.32l-1.98,1.15v7.02Z"/>
    </g>
    <g class="cls-8">
      <path class="cls-10" d="M339.07,299.35l-20.03,11.56,20.03,11.56,20.03-11.56-20.03-11.56Z"/>
      <path class="cls-10" d="M318.55,311.75v32.74l20.03,11.56v-32.74l-20.03-11.56ZM324.45,342.73l-3.92-2.26v-6.24l3.92,2.26v6.24ZM324.45,334.2l-3.92-2.26v-6.24l3.92,2.26v6.25ZM324.45,325.66l-3.92-2.26v-6.24l3.92,2.26v6.24ZM330.58,346.28l-3.92-2.26v-6.24l3.92,2.26v6.24ZM330.58,337.74l-3.92-2.26v-6.24l3.92,2.26v6.24ZM330.58,329.2l-3.92-2.26v-6.24l3.92,2.26v6.24ZM336.73,349.82l-3.93-2.27v-6.24l3.93,2.27v6.24ZM336.73,341.29l-3.93-2.27v-6.24l3.93,2.27v6.24ZM336.73,332.75l-3.93-2.27v-6.24l3.93,2.27v6.24Z"/>
      <path class="cls-10" d="M339.55,323.32v32.74l8-4.62v-11.41s3.92-2.26,3.92-2.26v11.41l8.11-4.69v-32.73l-20.03,11.57ZM353.69,336.49l3.92-2.26v6.24l-3.92,2.26v-6.24ZM353.69,327.95l3.92-2.26v6.24l-3.92,2.26v-6.25ZM353.69,319.42l3.92-2.26v6.24l-3.92,2.26v-6.24ZM347.55,331.5l3.92-2.26v6.24l-3.92,2.26v-6.24ZM347.55,322.97l3.92-2.26v6.24l-3.92,2.26v-6.24ZM341.41,343.58l3.93-2.27v6.24l-3.93,2.27v-6.24ZM341.41,335.04l3.93-2.27v6.24l-3.93,2.27v-6.24ZM341.41,326.51l3.93-2.27v6.24l-3.93,2.27v-6.24Z"/>
      <path class="cls-10" d="M348.52,347.47l1.98,1.15v-9.32l-1.98,1.15v7.02Z"/>
    </g>
    <g class="cls-8">
      <path class="cls-10" d="M262.63,351.58l-20.03,11.56,20.03,11.56,20.03-11.56-20.03-11.56Z"/>
      <path class="cls-10" d="M242.11,363.99v32.74l20.03,11.56v-32.74l-20.03-11.56ZM248.01,394.97l-3.92-2.26v-6.24l3.92,2.26v6.24ZM248.01,386.43l-3.92-2.26v-6.24l3.92,2.26v6.25ZM248.01,377.9l-3.92-2.26v-6.24l3.92,2.26v6.24ZM254.15,398.51l-3.92-2.26v-6.24l3.92,2.26v6.24ZM254.15,389.97l-3.92-2.26v-6.24l3.92,2.26v6.24ZM254.15,381.44l-3.92-2.26v-6.24l3.92,2.26v6.24ZM260.29,402.06l-3.93-2.27v-6.24l3.93,2.27v6.24ZM260.29,393.52l-3.93-2.27v-6.24l3.93,2.27v6.24ZM260.29,384.99l-3.93-2.27v-6.24l3.93,2.27v6.24Z"/>
      <path class="cls-10" d="M263.12,375.55v32.74l8-4.62v-11.41s3.92-2.26,3.92-2.26v11.41l8.11-4.69v-32.73l-20.03,11.57ZM277.25,388.73l3.92-2.26v6.24l-3.92,2.26v-6.24ZM277.25,380.19l3.92-2.26v6.24l-3.92,2.26v-6.25ZM277.25,371.66l3.92-2.26v6.24l-3.92,2.26v-6.24ZM271.11,383.73l3.92-2.26v6.24l-3.92,2.26v-6.24ZM271.11,375.2l3.92-2.26v6.24l-3.92,2.26v-6.24ZM264.97,395.81l3.93-2.27v6.24l-3.93,2.27v-6.24ZM264.97,387.28l3.93-2.27v6.24l-3.93,2.27v-6.24ZM264.97,378.75l3.93-2.27v6.24l-3.93,2.27v-6.24Z"/>
      <path class="cls-10" d="M272.08,399.7l1.98,1.15v-9.32l-1.98,1.15v7.02Z"/>
    </g>
    <path class="cls-3" d="M254.01,115.58l-1.43-.83c2.43-4.99,2.65-10.55.98-15.49,1.29,4.89.78,10.25-1.82,15.01l-4.18-2.42c1.61-3.54,1.69-7.45.46-10.92.85,3.41.48,7.13-1.29,10.44l-3.87-2.24c.84-2.18.8-4.55,0-6.64.45,2.03.21,4.21-.8,6.19l-4.26-2.46c-.04-.18-.1-.35-.18-.52-.08-.18-.19-.34-.31-.49-.1-.12-.2-.23-.32-.33l1.93-4.02-3.14-14.91c-.05-.59-.55-1.05-1.15-1.05s-1.09.46-1.15,1.05v.95c-5.69.29-10.77,2.91-14.3,6.93,3.67-3.65,8.72-5.91,14.3-5.93v4.8c-4.03.29-7.61,2.2-10.08,5.09,2.61-2.53,6.17-4.09,10.08-4.11v4.43c-2.48.28-4.66,1.54-6.15,3.38,1.63-1.48,3.78-2.39,6.15-2.42v5.87c-.16.15-.3.32-.42.51-.05.08-.1.17-.14.25-.05.12-.1.23-.14.36l-4.51.34-11.34,10.18c-.49.34-.63,1-.34,1.52.3.52.94.72,1.48.47l1.2-.69c3.1,4.78,7.9,7.87,13.15,8.92-5-1.35-9.48-4.6-12.29-9.42l4.16-2.4c2.23,3.3,5.62,5.43,9.3,6.16l-.9,21.42h-1.02c-.42,0-.77.34-.77.77v2.98c0,.42.34.77.77.77h7.07c.42,0,.77-.34.77-.77v-2.98c0-.42-.34-.77-.77-.77h-1.02l-1.36-32.44c-.25.13-.53.21-.82.25-.11.01-.22.02-.33.02s-.22,0-.33-.02c-.29-.04-.57-.12-.82-.25l-.23,5.35c-1.63-.76-3.05-2.01-4.03-3.67l4.46-2.58c.21.09.43.15.67.18.11.01.22.02.33.02s.22,0,.33-.02c.13-.01.26-.04.38-.08l2.4,3.52,14.48,4.73c.54.25,1.19.05,1.49-.47.3-.52.15-1.17-.33-1.52h0ZM233.83,115.65l-.23,5.46c-3.43-1.02-6.5-3.3-8.45-6.63l3.83-2.21c1.23,1.67,2.96,2.83,4.85,3.38h0ZM235.76,107.8c-.11.05-.22.09-.35.11-.04,0-.09,0-.14,0s-.09,0-.14,0c-.13-.01-.24-.05-.35-.11-.36-.18-.61-.55-.61-.99,0-.17.04-.33.11-.47.02-.04.04-.07.06-.11.19-.31.54-.52.94-.52.35,0,.66.16.86.42.05.06.1.14.13.21.07.14.11.3.11.47,0,.44-.25.81-.61.99h0Z"/>
    <path class="cls-3" d="M382.32,421.36l-1.43-.83c2.43-4.99,2.65-10.55.98-15.49,1.29,4.89.78,10.25-1.82,15.01l-4.18-2.42c1.61-3.54,1.69-7.45.46-10.92.85,3.41.48,7.13-1.29,10.44l-3.87-2.24c.84-2.18.8-4.55,0-6.64.45,2.03.21,4.21-.8,6.19l-4.26-2.46c-.04-.18-.1-.35-.18-.52-.08-.18-.19-.34-.31-.49-.1-.12-.2-.23-.32-.33l1.93-4.02-3.14-14.91c-.05-.59-.55-1.05-1.15-1.05s-1.09.46-1.15,1.05v.95c-5.69.29-10.77,2.91-14.3,6.93,3.67-3.65,8.72-5.91,14.3-5.93v4.8c-4.03.29-7.61,2.2-10.08,5.09,2.61-2.53,6.17-4.09,10.08-4.11v4.43c-2.48.28-4.66,1.54-6.15,3.38,1.63-1.48,3.78-2.39,6.15-2.42v5.87c-.16.15-.3.32-.42.51-.05.08-.1.17-.14.25-.05.12-.1.23-.14.36l-4.51.34-11.34,10.18c-.49.34-.63,1-.34,1.52.3.52.94.72,1.48.47l1.2-.69c3.1,4.78,7.9,7.87,13.15,8.92-5-1.35-9.48-4.6-12.29-9.42l4.16-2.4c2.23,3.3,5.62,5.43,9.3,6.16l-.9,21.42h-1.02c-.42,0-.77.34-.77.77v2.98c0,.42.34.77.77.77h7.07c.42,0,.77-.34.77-.77v-2.98c0-.42-.34-.77-.77-.77h-1.02l-1.36-32.44c-.25.13-.53.21-.82.25-.11.01-.22.02-.33.02s-.22,0-.33-.02c-.29-.04-.57-.12-.82-.25l-.23,5.35c-1.63-.76-3.05-2.01-4.03-3.67l4.46-2.58c.21.09.43.15.67.18.11.01.22.02.33.02s.22,0,.33-.02c.13-.01.26-.04.38-.08l2.4,3.52,14.48,4.73c.54.25,1.19.05,1.49-.47.3-.52.15-1.17-.33-1.52h0ZM362.14,421.44l-.23,5.46c-3.43-1.02-6.5-3.3-8.45-6.63l3.83-2.21c1.23,1.67,2.96,2.83,4.85,3.38h0ZM364.07,413.58c-.11.05-.22.09-.35.11-.04,0-.09,0-.14,0s-.09,0-.14,0c-.13-.01-.24-.05-.35-.11-.36-.18-.61-.55-.61-.99,0-.17.04-.33.11-.47.02-.04.04-.07.06-.11.19-.31.54-.52.94-.52.35,0,.66.16.86.42.05.06.1.14.13.21.07.14.11.3.11.47,0,.44-.25.81-.61.99h0Z"/>
    <path class="cls-3" d="M204.79,411.47h-10.87v2.19h12.83v-2.19h-1.97ZM204.39,410.69v-2.58h-8.09v2.58h8.09ZM183.37,401.78h7.95l.36-4.11h-7.56l-.75,4.11ZM192.11,401.78h7.84v-4.11h-7.48l-.36,4.11h0ZM200.73,401.78h7.84l-.36-4.11h-7.48v4.11h0ZM209.36,401.78h7.95l-.75-4.11h-7.56l.36,4.11ZM217.45,402.56h-8.03l.42,4.77h5.14c.43,0,.83-.09,1.19-.25.36-.17.68-.42.95-.75.27-.33.46-.69.56-1.07.1-.38.11-.79.04-1.21l-.27-1.48h0ZM208.64,402.56h-7.91v4.77h8.32l-.42-4.77h0ZM199.95,402.56h-7.91l-.42,4.77h8.32v-4.77h0ZM191.26,402.56h-8.03l-.27,1.48c-.08.42-.06.83.04,1.21.1.38.28.73.56,1.06.28.34.61.59.96.76.36.17.75.25,1.19.25h5.14l.42-4.77h0ZM185.15,391.98h7.03l.42-4.77h-4.25c-.68,0-1.3.24-1.79.64-.48.41-.83.98-.95,1.65l-.45,2.48h0ZM192.97,391.98h6.98v-4.77h-6.56l-.42,4.77ZM200.73,391.98h6.98l-.42-4.77h-6.56v4.77ZM208.5,391.98h7.03l-.45-2.48c-.12-.67-.47-1.24-.95-1.65-.48-.4-1.11-.64-1.79-.64h-4.25l.42,4.77h0ZM215.67,392.76h-7.1l.36,4.12h7.49l-.75-4.12h0ZM207.78,392.76h-7.05v4.12h7.41l-.36-4.12ZM199.95,392.76h-7.05l-.36,4.12h7.41v-4.12ZM192.11,392.76h-7.1l-.75,4.12h7.49l.36-4.12h0Z"/>
    <path class="cls-3" d="M176.09,375.41h-10.87v2.19h12.83v-2.19h-1.97ZM175.68,374.63v-2.58h-8.09v2.58h8.09ZM154.67,365.72h7.95l.36-4.11h-7.56l-.75,4.11ZM163.41,365.72h7.84v-4.11h-7.48l-.36,4.11h0ZM172.03,365.72h7.84l-.36-4.11h-7.48v4.11h0ZM180.65,365.72h7.95l-.75-4.11h-7.56l.36,4.11ZM188.75,366.5h-8.03l.42,4.77h5.14c.43,0,.83-.09,1.19-.25.36-.17.68-.42.95-.75.27-.33.46-.69.56-1.07.1-.38.11-.79.04-1.21l-.27-1.48h0ZM179.94,366.5h-7.91v4.77h8.32l-.42-4.77h0ZM171.25,366.5h-7.91l-.42,4.77h8.32v-4.77h0ZM162.55,366.5h-8.03l-.27,1.48c-.08.42-.06.83.04,1.21.1.38.28.73.56,1.06.28.34.61.59.96.76.36.17.75.25,1.19.25h5.14l.42-4.77h0ZM156.45,355.92h7.03l.42-4.77h-4.25c-.68,0-1.3.24-1.79.64-.48.41-.83.98-.95,1.65l-.45,2.48h0ZM164.27,355.92h6.98v-4.77h-6.56l-.42,4.77ZM172.03,355.92h6.98l-.42-4.77h-6.56v4.77ZM179.8,355.92h7.03l-.45-2.48c-.12-.67-.47-1.24-.95-1.65-.48-.4-1.11-.64-1.79-.64h-4.25l.42,4.77h0ZM186.97,356.7h-7.1l.36,4.12h7.49l-.75-4.12h0ZM179.08,356.7h-7.05v4.12h7.41l-.36-4.12ZM171.25,356.7h-7.05l-.36,4.12h7.41v-4.12ZM163.41,356.7h-7.1l-.75,4.12h7.49l.36-4.12h0Z"/>
    <path class="cls-3" d="M125.44,240.37h-10.87v2.19h12.83v-2.19h-1.97ZM125.04,239.58v-2.58h-8.09v2.58h8.09ZM104.02,230.67h7.95l.36-4.11h-7.56l-.75,4.11ZM112.76,230.67h7.84v-4.11h-7.48l-.36,4.11h0ZM121.39,230.67h7.84l-.36-4.11h-7.48v4.11h0ZM130.01,230.67h7.95l-.75-4.11h-7.56l.36,4.11ZM138.11,231.45h-8.03l.42,4.77h5.14c.43,0,.83-.09,1.19-.25.36-.17.68-.42.95-.75.27-.33.46-.69.56-1.07.1-.38.11-.79.04-1.21l-.27-1.48h0ZM129.29,231.45h-7.91v4.77h8.32l-.42-4.77h0ZM120.6,231.45h-7.91l-.42,4.77h8.32v-4.77h0ZM111.91,231.45h-8.03l-.27,1.48c-.08.42-.06.83.04,1.21.1.38.28.73.56,1.06.28.34.61.59.96.76.36.17.75.25,1.19.25h5.14l.42-4.77h0ZM105.81,220.87h7.03l.42-4.77h-4.25c-.68,0-1.3.24-1.79.64-.48.41-.83.98-.95,1.65l-.45,2.48h0ZM113.62,220.87h6.98v-4.77h-6.56l-.42,4.77ZM121.39,220.87h6.98l-.42-4.77h-6.56v4.77ZM129.15,220.87h7.03l-.45-2.48c-.12-.67-.47-1.24-.95-1.65-.48-.4-1.11-.64-1.79-.64h-4.25l.42,4.77h0ZM136.32,221.66h-7.1l.36,4.12h7.49l-.75-4.12h0ZM128.44,221.66h-7.05v4.12h7.41l-.36-4.12ZM120.6,221.66h-7.05l-.36,4.12h7.41v-4.12ZM112.77,221.66h-7.1l-.75,4.12h7.49l.36-4.12h0Z"/>
    <path class="cls-6" d="M414.27,401.81v8.32l5.59-5.59,1.5,1.5-7.09,7.09v10.8l4.22-4.22,1.5,1.5-5.72,5.72v8.96h6.54v2.12h-15.21v-2.12h6.54v-34.08h2.12ZM414.27,416.61h10.18c7.03,0,10.66-8.4,5.91-13.53-1.89-2.04-3.78-2.44-6.34-2.63l.09-1.67c0-8.24-10.01-12.39-15.84-6.56-2.21,2.21-3.18,5.4-2.51,8.51l.41,1.93c-1.63-.65-2.84-1.26-4.64-1.26-6.76,0-10.16,8.21-5.38,12.99,1.38,1.38,3.28,2.23,5.38,2.23h12.75,0Z"/>
    <path class="cls-6" d="M148.83,63.47v8.32l5.59-5.59,1.5,1.5-7.09,7.09v10.8l4.22-4.22,1.5,1.5-5.72,5.72v8.96h6.54v2.12h-15.21v-2.12h6.54v-34.08h2.12ZM148.83,78.27h10.18c7.03,0,10.66-8.4,5.91-13.53-1.89-2.04-3.78-2.44-6.34-2.63l.09-1.67c0-8.24-10.01-12.39-15.84-6.56-2.21,2.21-3.18,5.4-2.51,8.51l.41,1.93c-1.63-.65-2.84-1.26-4.64-1.26-6.76,0-10.16,8.21-5.38,12.99,1.38,1.38,3.28,2.23,5.38,2.23h12.75,0Z"/>
    <path class="cls-6" d="M180.47,170.02v8.32l5.59-5.59,1.5,1.5-7.09,7.09v10.8l4.22-4.22,1.5,1.5-5.72,5.72v8.96h6.54v2.12h-15.21v-2.12h6.54v-34.08h2.12ZM180.47,184.82h10.18c7.03,0,10.66-8.4,5.91-13.53-1.89-2.04-3.78-2.44-6.34-2.63l.09-1.67c0-8.24-10.01-12.39-15.84-6.56-2.21,2.21-3.18,5.4-2.51,8.51l.41,1.93c-1.63-.65-2.84-1.26-4.64-1.26-6.76,0-10.16,8.21-5.38,12.99,1.38,1.38,3.28,2.23,5.38,2.23h12.75,0Z"/>
    <path class="cls-6" d="M340.9,227.28v8.32l5.59-5.59,1.5,1.5-7.09,7.09v10.8l4.22-4.22,1.5,1.5-5.72,5.72v8.96h6.54v2.12h-15.21v-2.12h6.54v-34.08h2.12ZM340.9,242.07h10.18c7.03,0,10.66-8.4,5.91-13.53-1.89-2.04-3.78-2.44-6.34-2.63l.09-1.67c0-8.24-10.01-12.39-15.84-6.56-2.21,2.21-3.18,5.4-2.51,8.51l.41,1.93c-1.63-.65-2.84-1.26-4.64-1.26-6.76,0-10.16,8.21-5.38,12.99,1.38,1.38,3.28,2.23,5.38,2.23h12.75,0Z"/>
    <path class="cls-6" d="M266.87,291v8.32l5.59-5.59,1.5,1.5-7.09,7.09v10.8l4.22-4.22,1.5,1.5-5.72,5.72v8.96h6.54v2.12h-15.21v-2.12h6.54v-34.08h2.12ZM266.87,305.79h10.18c7.03,0,10.66-8.4,5.91-13.53-1.89-2.04-3.78-2.44-6.34-2.63l.09-1.67c0-8.24-10.01-12.39-15.84-6.56-2.21,2.21-3.18,5.4-2.51,8.51l.41,1.93c-1.63-.65-2.84-1.26-4.64-1.26-6.76,0-10.16,8.21-5.38,12.99,1.38,1.38,3.28,2.23,5.38,2.23h12.75,0Z"/>
  </g>
  <g id="Layer_5" data-name="Layer 5">
    <polygon class="cls-9" points="31.26 200.54 378.78 200.54 378.78 266.13 538.82 266.2 538.82 331.8 103.41 331.8 103.41 266.2 31.26 266.13 31.26 200.54"/>
    <text class="cls-2" transform="translate(48.32 249.57)"><tspan x="0" y="0">Ene</tspan><tspan class="cls-1" x="82.69" y="0">r</tspan><tspan class="cls-11" x="100.36" y="0">giewende</tspan></text>
    <text class="cls-2" transform="translate(120.47 313.7)"><tspan x="0" y="0">in Oderland-Sp</tspan><tspan class="cls-1" x="334.29" y="0">r</tspan><tspan class="cls-11" x="351.96" y="0">ee</tspan></text>
  </g>
</svg>