<?xml version="1.0" encoding="UTF-8" standalone="no"?>
<!-- Created with Inkscape (http://www.inkscape.org/) -->

<svg
   version="1.1"
   id="svg2"
   xml:space="preserve"
   width="1770"
   height="1790"
   viewBox="0 0 1770 1790"
   sodipodi:docname="EmPowerPlan_logo.svg"
   inkscape:version="1.1.2 (0a00cf5339, 2022-02-04)"
   inkscape:export-filename="/home/nesnoj/RLI/Nextcloud_wolke/Team_TEO/Projekte/359_EmPowerPlan/Organisation/OeA/Logo/EmPowerPlan_logo_transbg_1600px.png"
   inkscape:export-xdpi="97.784576"
   inkscape:export-ydpi="97.784576"
   xmlns:inkscape="http://www.inkscape.org/namespaces/inkscape"
   xmlns:sodipodi="http://sodipodi.sourceforge.net/DTD/sodipodi-0.dtd"
   xmlns="http://www.w3.org/2000/svg"
   xmlns:svg="http://www.w3.org/2000/svg"
   xmlns:rdf="http://www.w3.org/1999/02/22-rdf-syntax-ns#"
   xmlns:cc="http://creativecommons.org/ns#"
   xmlns:dc="http://purl.org/dc/elements/1.1/"><metadata
     id="metadata8"><rdf:RDF><cc:Work
         rdf:about=""><dc:format>image/svg+xml</dc:format><dc:type
           rdf:resource="http://purl.org/dc/dcmitype/StillImage" /><dc:title /></cc:Work></rdf:RDF></metadata><defs
     id="defs6"><clipPath
       clipPathUnits="userSpaceOnUse"
       id="clipPath18"><path
         d="M 0,1556.79 H 1805.675 V 0 H 0 Z"
         id="path16"
         inkscape:connector-curvature="0" /></clipPath><clipPath
       clipPathUnits="userSpaceOnUse"
       id="clipPath130"><path
         d="m 575.998,874.946 43.75,-22.38 c -0.782,7.937 -1.31,16.013 -1.547,24.237 v 0 c -0.146,7.961 -0.072,15.92 0.574,23.877 v 0 l -51.777,33.08 c 0,0 1.496,-23.793 9,-58.814 m 54.866,1.933 c -0.032,-10.454 0.418,-20.675 1.309,-30.668 v 0 l 29.175,-14.925 c -1.092,10.412 -1.648,20.874 -1.636,31.325 v 0 c 0.038,3.937 0.133,7.607 0.457,11.621 v 0 l -28.678,18.322 c -0.382,-5.218 -0.559,-10.468 -0.627,-15.675 m 41.693,-25.638 c 0.019,-8.788 0.453,-17.582 1.279,-26.342 v 0 l 19.654,-10.054 c -0.029,0.201 -0.067,0.399 -0.097,0.601 v 0 c -1.81,12.989 -2.974,26.038 -2.561,39.196 v 0 l -17.821,11.386 c -0.326,-4.92 -0.457,-9.895 -0.454,-14.787 M 588.732,826.562 626.89,809.68 c -2.508,10.503 -4.499,21.312 -5.949,32.421 v 0 l -41.642,18.406 c 2.586,-10.649 5.696,-22.055 9.433,-33.945 m 116.392,-9.674 c 0.295,-2.852 0.632,-5.688 1.006,-8.509 v 0 l 20.972,-10.728 c -2.934,21.631 -2.029,35.115 -2.029,35.115 v 0 l -21.188,13.536 c -0.258,-9.799 0.298,-19.667 1.239,-29.414 m -66.309,-12.485 29.504,-13.054 c -2.636,10.71 -4.674,21.57 -6.1,32.506 v 0 L 633.158,836.7 c 1.325,-11.069 3.222,-21.835 5.657,-32.297 m 41.386,-18.311 21.578,-9.547 c -3.07,10.752 -5.563,21.796 -7.448,33.116 v 0 l -19.816,8.758 c 1.274,-10.871 3.173,-21.672 5.686,-32.327 m -75.807,-2.317 34.752,-13.24 c -3.648,9.274 -6.847,18.841 -9.577,28.694 v 0 l -36.345,13.72 c 3.3,-9.542 7.009,-19.311 11.17,-29.174 m 109.148,-12.434 20.784,-9.197 c -3.287,12.149 -5.447,23.247 -6.849,32.866 v 0 l -20.758,9.175 c 1.654,-11.213 3.941,-22.166 6.823,-32.844 m -62.921,-5.178 29.191,-11.121 c -3.689,9.427 -6.873,19.056 -9.553,28.827 v 0 l -29.06,10.97 c 2.654,-9.849 5.802,-19.41 9.422,-28.676 m 40.418,-15.399 22.995,-8.761 c -4.08,9.53 -7.687,19.33 -10.763,29.405 v 0 l -21.439,8.093 c 2.545,-9.741 5.623,-19.338 9.207,-28.737 m -67.752,-6.107 33.654,-11.075 c -5.041,8.737 -9.623,17.806 -13.731,27.193 v 0 l -33.355,10.584 c 4.084,-8.902 8.549,-17.835 13.432,-26.702 m 101.589,-6.784 20.104,-7.66 c -4.056,10.179 -7.311,19.972 -9.903,29.189 v 0 l -20.35,7.681 c 2.865,-9.989 6.253,-19.734 10.149,-29.21 m -56.855,-7.938 27.989,-9.211 c -4.991,8.927 -9.473,18.135 -13.445,27.563 v 0 l -28.267,8.969 c 4.08,-9.432 8.657,-18.545 13.723,-27.321 m 38.489,-12.667 24.009,-7.901 c -5.377,9.131 -10.248,18.588 -14.613,28.34 v 0 l -22.536,7.151 c 3.853,-9.437 8.229,-18.658 13.14,-27.59 m 33.84,-11.137 18.704,-6.156 c -5.161,9.635 -9.557,19.098 -13.284,28.255 v 0 l -19.435,6.167 c 4.148,-9.712 8.831,-19.139 14.015,-28.266 m -89.355,-4.359 35.32,-9.61 c -8.138,9.466 -15.628,19.462 -22.412,29.986 v 0 l -32.627,8.693 c 6.004,-9.885 12.559,-19.621 19.719,-29.069 m 45.937,-12.498 25.114,-6.833 c -2.359,2.961 -5.445,6.937 -6.275,7.948 v 0 c -5.323,7.047 -10.262,14.363 -14.838,21.895 v 0 l -26.458,7.048 c 6.769,-10.547 14.276,-20.567 22.457,-30.058 m 30.564,-4.186 c 0.923,-1.335 2.473,-3.109 3.492,-4.37 v 0 c 0.243,-0.296 0.497,-0.608 0.748,-0.913 v 0 l 23.899,-6.502 c -7.813,9.586 -14.988,19.648 -21.512,30.139 v 0 l -23.235,6.19 c 5.048,-8.483 10.578,-16.689 16.608,-24.544 m 36.386,-14.029 15.872,-4.318 c -7.1,9.912 -13.284,19.794 -18.673,29.52 v 0 l -17.739,4.726 c 6.198,-10.393 13.059,-20.376 20.54,-29.928 m -74.48,-11.141 40.389,-8.602 c -12.385,9.427 -23.875,19.707 -34.404,30.805 v 0 l -34.486,7.25 c 8.684,-10.328 18.157,-20.214 28.501,-29.453 m 50.141,-10.679 20.248,-4.312 c -7.522,6.124 -14.732,12.625 -21.524,19.564 v 0 c -3.359,3.223 -6.77,7.044 -10.018,10.72 v 0 l -22.99,4.834 c 10.468,-11.08 21.921,-21.359 34.284,-30.806 m 2.396,18.742 c 8.093,-8.895 16.813,-17.136 26.019,-24.792 v 0 l 20.773,-4.424 c -10.468,9.342 -20.221,19.308 -29.197,29.869 v 0 l -22.44,4.718 c 1.625,-1.903 3.268,-3.756 4.845,-5.371 m 52.608,-30.454 11.135,-2.372 c -8.913,9.538 -16.856,19.177 -23.917,28.806 v 0 l -14.685,3.087 c 8.429,-10.383 17.603,-20.236 27.467,-29.521 m 58.615,-44.485 c -42.21,10.942 -80.025,27.901 -112.363,50.284 v 0 l -38.6,5.862 c 38.469,-30.283 87.776,-51.806 150.963,-56.146 m 0,0 c -30.606,11.151 -60.225,26.475 -86.31,46.328 v 0 l -17.454,2.65 c 30.045,-21.092 64.954,-37.571 103.764,-48.978 m 0,0 c -1.489,1.098 -2.962,2.203 -4.417,3.31 v 0 c -20.434,11.31 -39.263,24.415 -56.286,39.129 v 0 l -18.437,2.8 c 23.922,-18.782 50.905,-33.716 79.14,-45.239 m -4.425,3.316 c -15.626,11.895 -29.278,24.268 -41.22,36.837 v 0 l -9.931,1.508 c 15.487,-14.194 32.605,-27.024 51.151,-38.345 m 0.008,-0.006 c 0.008,-0.005 0.014,-0.008 0.022,-0.012 v 0 c -0.01,0.006 -0.019,0.012 -0.03,0.018 v 0 c 0.003,-0.003 0.005,-0.004 0.008,-0.006"
         id="path128"
         inkscape:connector-curvature="0" /></clipPath><linearGradient
       x1="0"
       y1="0"
       x2="1"
       y2="0"
       gradientUnits="userSpaceOnUse"
       gradientTransform="matrix(-152.24983,-106.60648,-106.60648,152.24983,767.2218,814.53802)"
       spreadMethod="pad"
       id="linearGradient146"><stop
         style="stop-opacity:1;stop-color:#15304e"
         offset="0"
         id="stop136" /><stop
         style="stop-opacity:1;stop-color:#15304e"
         offset="0.187151"
         id="stop138" /><stop
         style="stop-opacity:1;stop-color:#2375a6"
         offset="0.51676"
         id="stop140" /><stop
         style="stop-opacity:1;stop-color:#15304e"
         offset="0.843575"
         id="stop142" /><stop
         style="stop-opacity:1;stop-color:#15304e"
         offset="1"
         id="stop144" /></linearGradient><clipPath
       clipPathUnits="userSpaceOnUse"
       id="clipPath164"><path
         d="M 0,1556.79 H 1805.675 V 0 H 0 Z"
         id="path162"
         inkscape:connector-curvature="0" /></clipPath></defs><sodipodi:namedview
     pagecolor="#ffffff"
     bordercolor="#666666"
     borderopacity="1"
     objecttolerance="10"
     gridtolerance="10"
     guidetolerance="10"
     inkscape:pageopacity="1"
     inkscape:pageshadow="2"
     inkscape:window-width="1920"
     inkscape:window-height="1031"
     id="namedview4"
     showgrid="true"
     showguides="true"
     inkscape:guide-bbox="true"
     inkscape:zoom="0.45478196"
     inkscape:cx="825.67039"
     inkscape:cy="907.02806"
     inkscape:window-x="0"
     inkscape:window-y="0"
     inkscape:window-maximized="1"
     inkscape:current-layer="layer1"
     inkscape:pagecheckerboard="0"><sodipodi:guide
       position="-1807.4596,1948.1864"
       orientation="0,1"
       id="guide981"
       inkscape:locked="false" /><inkscape:grid
       type="xygrid"
       id="grid985" /><sodipodi:guide
       position="140,2140"
       orientation="1,0"
       id="guide987"
       inkscape:locked="false" /></sodipodi:namedview><g
     inkscape:groupmode="layer"
     id="layer1"
     inkscape:label="bg"
     style="display:inline" /><g
     id="g10"
     inkscape:groupmode="layer"
     inkscape:label="2022-11-28_EmPowerPlan-logo"
     transform="matrix(1.3333333,0,0,-1.3333333,0,1790)"
     style="display:inline"><g
   id="g12"
   transform="translate(-251.59929,-196.08547)"
   inkscape:export-xdpi="18.339914"
   inkscape:export-ydpi="18.339914"><g
     id="g14"
     clip-path="url(#clipPath18)"><g
       id="g20"
       transform="translate(801.2803,604.8726)"><path
         d="m 0,0 c -25.293,4.284 -13.377,9.497 -13.377,9.497 h -3.392 c 0,0 -21.894,191.035 -21.894,211.542 0,20.506 7.401,52.731 9.868,71.542 2.467,18.81 -9.868,79.559 -9.868,79.559 0,0 19.53,6.579 22.202,9.868 2.673,3.289 0.823,10.484 4.318,11.101 3.495,0.617 5.55,0 5.55,0 0,0 -0.411,7.995 -0.616,10.873 -11.513,5.345 -17.222,46.461 -12.288,56.945 4.934,10.485 23.848,16.035 38.033,11.513 14.185,-4.523 12.081,-25.469 12.492,-33.692 0.412,-8.223 -4.68,-31.374 -13.726,-35.513 -3.854,-1.764 1.392,-11.976 1.392,-11.976 0,0 2.202,0.08 5.236,-2.079 3.034,-2.159 -0.142,-4.358 3.651,-5.551 3.827,-1.203 14.036,-1.156 17.269,-4.625 3.232,-3.469 2.83,-59.389 2.83,-72.855 0,-17.886 -7.555,-51.807 -6.784,-63.524 0.771,-11.718 13.492,-88.016 20.969,-132.599 0,0 17.063,-89.633 17.269,-94.978 0.206,-5.345 -6.167,-4.934 -6.167,-4.934 0,0 26.519,-14.596 26.519,-18.502 0,-3.906 -12.334,-5.962 -17.885,-4.934 -5.551,1.028 -15.624,7.812 -19.119,9.251 -3.495,1.439 -12.746,2.261 -13.568,6.167 -0.823,3.906 3.083,12.335 3.083,12.335 0,0 -16.075,55.601 -16.898,62.385 -0.822,6.784 0.863,22.52 -0.37,29.509 -1.234,6.99 -21.586,55.301 -23.436,56.124 C 9.443,163.271 10.522,12.118 10.522,12.118 L 4.509,11.964 c 0,0 6.167,-14.185 5.55,-16.652 C 9.443,-7.155 13.864,-2.348 0,0"
         style="fill:#335873;fill-opacity:1;fill-rule:nonzero;stroke:none"
         id="path22"
         inkscape:connector-curvature="0" /></g><g
       id="g24"
       transform="translate(785.2784,1018.8249)"><path
         d="m 0,0 h -7.606 l 2.418,32.276 H 46.414 L 49.545,0 H 44.32"
         style="fill:#335873;fill-opacity:1;fill-rule:nonzero;stroke:none"
         id="path26"
         inkscape:connector-curvature="0" /></g><g
       id="g28"
       transform="translate(792.8374,835.7792)"><path
         d="m 0,0 -8.943,3.392 c 0,0 -8.419,26.828 -16.343,37.313 -7.924,10.484 -16.582,14.646 -14.494,17.885 2.088,3.24 32.996,51.19 32.996,51.19 l -14.119,34.848 -9.317,-3.395 c 0,0 -42.247,-74.934 -35.463,-89.427 6.784,-14.493 23.904,-37.174 32.842,-45.022 8.937,-7.848 18.964,-16.652 18.964,-16.652 l 4.626,-11.101 z"
         style="fill:#335873;fill-opacity:1;fill-rule:nonzero;stroke:none"
         id="path30"
         inkscape:connector-curvature="0" /></g><g
       id="g32"
       transform="translate(816.1526,842.255)"><path
         d="m 0,0 8.943,3.392 c 0,0 8.419,26.828 16.343,37.313 C 33.21,51.189 41.868,55.351 39.78,58.59 37.692,61.83 6.784,109.78 6.784,109.78 l 14.119,34.848 9.317,-3.395 c 0,0 42.247,-74.934 35.463,-89.427 C 58.899,37.313 41.779,14.632 32.841,6.784 23.904,-1.064 13.877,-9.868 13.877,-9.868 L 9.251,-20.969 Z"
         style="fill:#335873;fill-opacity:1;fill-rule:nonzero;stroke:none"
         id="path34"
         inkscape:connector-curvature="0" /></g><g
       id="g36"
       transform="translate(908.8894,592.0392)"><path
         d="m 0,0 c 14.031,-0.925 11.101,22.819 11.101,22.819 h 3.392 c 0,0 21.895,191.035 21.895,211.542 0,20.507 -7.401,52.731 -9.868,71.542 -2.467,18.81 9.868,79.559 9.868,79.559 0,0 -19.53,6.579 -22.203,9.868 -2.672,3.289 -0.822,10.485 -4.317,11.101 -3.495,0.617 -5.551,0 -5.551,0 0,0 0.028,4.727 0.233,7.605 4.694,2.179 13.458,11.977 16.876,18.35 4.964,9.258 3.699,25.809 0.777,32.019 -4.934,10.484 -30.221,17.474 -44.406,12.951 -14.185,-4.522 -10.69,-17.063 -11.101,-25.286 -0.411,-8.223 0.617,-39.883 3.289,-43.172 2.673,-3.289 9.046,-4.317 9.046,-4.317 0,0 -13.106,-4.317 -18.502,-9.251 -3.849,-3.519 -8.075,-30.726 -15.888,-56.072 -0.051,-8.112 5.403,-14.656 5.403,-19.787 0,-17.885 7.555,-51.806 6.784,-63.524 -0.771,-11.718 -13.492,-88.016 -20.969,-132.599 0,0 -12.752,-90.044 -12.958,-95.389 -0.205,-5.345 1.857,-4.523 1.857,-4.523 0,0 -23.173,-12.563 -26.52,-14.577 3.047,1.834 12.783,-3.474 18.334,-2.446 10.588,1.961 11.634,-0.059 18.67,2.838 3.495,1.439 12.746,2.261 13.569,6.167 0.822,3.907 -3.084,12.335 -3.084,12.335 0,0 11.506,52.629 12.329,59.413 0.822,6.784 3.706,25.492 4.94,32.481 1.233,6.99 27.13,66.608 28.98,67.431 1.85,0.822 -4.773,-161.638 -4.773,-161.638 l 6.013,-0.154 c 0,0 -6.167,-14.185 -5.551,-16.652 C -11.718,6.167 -14.031,0.925 0,0"
         style="fill:#335873;fill-opacity:1;fill-rule:nonzero;stroke:none"
         id="path38"
         inkscape:connector-curvature="0" /></g><g
       id="g40"
       transform="translate(915.0568,836.2681)"><path
         d="m 0,0 8.943,3.392 c 0,0 8.419,26.828 16.343,37.313 C 33.21,51.189 41.868,55.351 39.78,58.59 37.692,61.83 6.784,109.78 6.784,109.78 l 14.119,34.848 9.317,-3.395 c 0,0 42.247,-74.934 35.463,-89.427 C 58.899,37.313 41.779,14.632 32.841,6.784 23.904,-1.064 13.877,-9.868 13.877,-9.868 L 9.251,-20.969 Z"
         style="fill:#335873;fill-opacity:1;fill-rule:nonzero;stroke:none"
         id="path42"
         inkscape:connector-curvature="0" /></g><g
       id="g44"
       transform="translate(848.6201,857.2967)"><path
         d="m 0,0 c 2.775,-8.098 19.873,3.775 27.582,5.625 7.709,1.85 -6.784,81.122 -6.784,81.122 v 43.326 L -13.739,44.405"
         style="fill:#335873;fill-opacity:1;fill-rule:nonzero;stroke:none"
         id="path46"
         inkscape:connector-curvature="0" /></g><g
       id="g48"
       transform="translate(656.9408,697.5208)"><path
         d="m 0,0 c -6.008,53.277 -18.869,169.169 -18.869,184.886 0,20.506 7.401,52.731 9.868,71.541 2.467,18.811 -9.868,79.56 -9.868,79.56 0,0 19.53,6.578 22.202,9.868 2.673,3.289 0.823,10.484 4.318,11.101 3.495,0.617 5.55,0 5.55,0 0,0 -0.411,14.39 -0.616,17.269 -11.513,5.345 -22.203,30.22 -17.269,40.704 4.934,10.485 30.22,17.475 44.405,12.952 14.185,-4.523 10.69,-17.063 11.101,-25.286 0.412,-8.224 -0.616,-39.883 -3.289,-43.172 -2.672,-3.289 -9.045,-4.317 -9.045,-4.317 0,0 13.105,-4.317 18.502,-9.251 5.396,-4.934 10.484,-57.974 10.484,-75.859 0,-17.886 -7.555,-51.807 -6.784,-63.525 0.771,-11.718 13.492,-88.015 20.969,-132.599 0,0 17.063,-89.632 17.269,-94.977 0.206,-5.345 -6.167,-4.934 -6.167,-4.934 0,0 7.311,-13.473 11.088,-20.732 3.776,-7.26 -1.709,-7.258 -7.26,-6.23 -5.55,1.028 -25.545,17.725 -26.367,21.631 -0.822,3.906 1.57,9.648 1.57,9.648 0,0 -16.076,55.601 -16.899,62.385 -0.822,6.784 0.863,22.519 -0.37,29.509 -1.234,6.99 -21.586,55.301 -23.436,56.123 C 29.481,127.009 30.082,13.296 30.268,-16.801 30.297,-21.39 3.565,-0.317 0,0"
         style="fill:#335873;fill-opacity:1;fill-rule:nonzero;stroke:none"
         id="path50"
         inkscape:connector-curvature="0" /></g><g
       id="g52"
       transform="translate(668.2919,892.2743)"><path
         d="m 0,0 -8.943,3.392 c 0,0 -8.419,26.828 -16.343,37.313 -7.924,10.484 -16.582,14.646 -14.494,17.885 2.088,3.24 32.996,51.19 32.996,51.19 l -14.119,34.848 -9.317,-3.395 c 0,0 -42.247,-74.934 -35.463,-89.427 6.784,-14.493 23.904,-37.174 32.842,-45.022 8.937,-7.848 18.964,-16.652 18.964,-16.652 l 4.626,-11.101 z"
         style="fill:#335873;fill-opacity:1;fill-rule:nonzero;stroke:none"
         id="path54"
         inkscape:connector-curvature="0" /></g><g
       id="g56"
       transform="translate(703.7354,1039.0679)"><path
         d="m 0,0 c 0,0 23.229,11.506 27.101,14.544 3.872,3.039 41.96,59.937 41.96,59.937 0,0 2.8,8.976 4.333,12.399 1.533,3.424 8.376,10.76 12.727,8.649 4.352,-2.112 6.621,-2.48 9.607,-6.879 2.986,-4.399 -1.962,-14.273 -5.666,-16.645 -3.704,-2.373 -10.45,-6.693 -10.45,-6.693 0,0 -24.794,-62.373 -33.664,-71.113 -8.869,-8.74 -47.313,-35.046 -47.313,-35.046"
         style="fill:#335873;fill-opacity:1;fill-rule:nonzero;stroke:none"
         id="path58"
         inkscape:connector-curvature="0" /></g><g
       id="g60"
       transform="translate(801.4574,1148.4187)"><path
         d="m 0,0 c -4.402,3.141 -18.075,-15.726 -18.075,-15.726 l 4.674,-3.993 c 0,0 16.431,17.558 13.401,19.719"
         style="fill:#335873;fill-opacity:1;fill-rule:nonzero;stroke:none"
         id="path62"
         inkscape:connector-curvature="0" /></g><g
       id="g64"
       transform="translate(951.6476,830.5356)"><path
         d="M 0,0 -150.186,-31.216 -300.372,0 V 144.729 L -153.589,113.514 0,144.729 Z"
         style="fill:#ffffff;fill-opacity:1;fill-rule:nonzero;stroke:none"
         id="path66"
         inkscape:connector-curvature="0" /></g><g
       id="g68"
       transform="translate(951.6476,830.5356)"><path
         d="M 0,0 -150.186,-31.216 -300.372,0 V 144.729 L -153.589,113.514 0,144.729 Z"
         style="fill:none;stroke:#dfe5ea;stroke-width:3.83400011;stroke-linecap:butt;stroke-linejoin:miter;stroke-miterlimit:10;stroke-dasharray:none;stroke-opacity:1"
         id="path70"
         inkscape:connector-curvature="0" /></g><g
       id="g72"
       transform="translate(801.4615,811.5966)"><path
         d="M 0,0 V 118.073"
         style="fill:none;stroke:#dfe5ea;stroke-width:3.83400011;stroke-linecap:butt;stroke-linejoin:miter;stroke-miterlimit:10;stroke-dasharray:none;stroke-opacity:1"
         id="path74"
         inkscape:connector-curvature="0" /></g><g
       id="g76"
       transform="translate(663.7625,898.9251)"><path
         d="M 0,0 137.699,-31.635 273.511,-7.71"
         style="fill:none;stroke:#dfe5ea;stroke-width:3.83400011;stroke-linecap:butt;stroke-linejoin:miter;stroke-miterlimit:10;stroke-dasharray:none;stroke-opacity:1"
         id="path78"
         inkscape:connector-curvature="0" /></g><g
       id="g80"
       transform="translate(635.4505,899.0584)"><path
         d="m 0,0 c 8.938,-7.848 18.965,-16.652 18.965,-16.652 0,0 -0.096,-7.086 4.625,-11.101 4.722,-4.016 15.207,-6.375 18.804,0.717 3.598,7.093 -6.771,18.609 -9.553,20.252 -2.781,1.643 -8.942,3.392 -8.942,3.392 0,0 -8.42,26.828 -16.344,37.313"
         style="fill:#335873;fill-opacity:1;fill-rule:nonzero;stroke:none"
         id="path82"
         inkscape:connector-curvature="0" /></g><g
       id="g84"
       transform="translate(954.2899,849.5771)"><path
         d="m 0,0 c -8.938,-7.848 -25.356,-23.177 -25.356,-23.177 0,0 0.096,-7.086 -4.626,-11.101 -4.722,-4.016 -15.206,-6.375 -18.804,0.717 -3.598,7.093 6.771,18.609 9.553,20.252 2.782,1.643 8.943,3.392 8.943,3.392 0,0 22.107,41.286 30.031,51.771"
         style="fill:#335873;fill-opacity:1;fill-rule:nonzero;stroke:none"
         id="path86"
         inkscape:connector-curvature="0" /></g><g
       id="g88"
       transform="translate(924.1256,1058.7119)"><path
         d="m 0,0 c 0,-6.674 4.66,-12.084 10.407,-12.084 5.748,0 10.408,5.41 10.408,12.084 0,6.674 -4.66,12.084 -10.408,12.084 C 4.66,12.084 0,6.674 0,0"
         style="fill:#335873;fill-opacity:1;fill-rule:nonzero;stroke:none"
         id="path90"
         inkscape:connector-curvature="0" /></g><g
       id="g92"
       transform="translate(912.5323,1462.2295)"><path
         d="m 0,0 -14.236,-0.245 -14.235,-0.491 -14.236,-0.982 -14.235,-1.227 -13.745,-1.473 -13.745,-1.963 -13.745,-2.455 -13.99,-2.7 -13.254,-2.945 -13.499,-3.191 -13.254,-3.436 -13.254,-3.927 -13.008,-4.418 -12.763,-4.418 -12.763,-4.663 -12.518,-5.4 -12.272,-5.154 -12.517,-5.891 -12.027,-5.891 -11.781,-6.381 -11.782,-6.627 -11.781,-6.872 -11.045,-7.118 -11.29,-7.363 -11.29,-7.609 -10.554,-7.854 -10.554,-8.1 -10.554,-8.59 -10.063,-8.345 -10.064,-8.836 -9.817,-9.327 -9.573,-9.327 -9.326,-9.327 -8.836,-9.817 -9.327,-10.063 -8.345,-10.309 -8.345,-10.309 -8.345,-10.554 -7.854,-10.799 -7.609,-11.29 -7.363,-11.291 -7.118,-11.045 -6.872,-11.535 -6.382,-11.782 -6.627,-12.026 -5.891,-12.272 -5.89,-12.027 -5.154,-12.517 -5.155,-12.273 -4.909,-12.763 -4.417,-12.763 -4.418,-13.008 -3.928,-13.254 -3.436,-13.254 -3.19,-13.254 -2.946,-13.744 -2.7,-13.745 -2.454,-13.499 -1.718,-13.991 -1.718,-13.99 -1.227,-14.236 -0.982,-14.235 -0.491,-13.99 v -14.481 -14.481 l 0.491,-13.991 0.982,-14.235 1.227,-14.236 1.718,-13.99 1.718,-13.99 2.454,-13.745 2.7,-13.499 2.946,-13.745 3.19,-13.009 3.436,-13.499 3.928,-13.008 4.418,-13.009 4.417,-13.008 4.909,-12.763 5.155,-12.518 5.154,-12.517 5.89,-12.027 5.891,-12.027 6.627,-12.026 6.382,-11.781 6.872,-11.536 7.118,-11.536 7.363,-11.29 7.609,-10.8 7.854,-11.045 8.345,-10.554 8.345,-10.308 8.345,-10.309 9.327,-9.817 8.836,-9.818 9.326,-9.572 9.573,-9.327 9.817,-9.082 10.064,-8.835 10.063,-8.591 10.554,-8.345 10.308,-8.345 104.559,139.166 -0.246,0.491 -14.481,11.044 -13.745,12.027 -13.254,12.763 -12.763,13.254 -12.026,14.236 -11.536,14.235 -10.554,15.218 -10.063,15.217 -9.081,16.199 -4.418,8.1 -4.173,8.345 -3.927,8.345 -3.682,8.59 -3.681,8.836 -3.191,8.591 -3.191,8.836 -2.945,9.081 -2.7,8.836 -2.454,9.081 -2.209,9.327 -2.209,9.327 -1.718,9.327 -1.473,9.326 -1.473,9.573 -0.736,9.572 -0.982,9.818 -0.491,9.817 -0.736,9.572 v 10.064 10.063 l 0.736,9.572 0.491,9.818 0.982,9.817 0.736,9.327 1.473,9.818 1.473,9.326 1.718,9.573 2.209,9.081 2.209,9.327 2.454,9.081 2.7,8.836 2.945,9.327 3.191,8.836 3.191,8.345 3.681,8.836 3.682,8.59 3.927,8.345 4.173,8.1 4.418,8.345 9.081,16.199 10.063,15.463 10.554,14.726 11.536,14.481 12.026,13.745 12.763,13.745 13.254,12.518 13.745,11.781 14.481,11.536 14.972,10.553 15.708,10.064 15.709,9.081 8.345,4.418 8.345,4.172 8.345,3.928 8.59,3.681 8.591,3.682 8.836,3.191 8.835,3.19 8.836,2.946 9.082,2.699 9.081,2.209 9.327,2.455 9.081,2.209 9.572,1.718 9.082,1.473 9.818,1.472 9.326,0.737 9.818,0.981 9.818,0.491 9.817,0.737 H 0 10.063 l 9.572,-0.737 9.818,-0.491 9.818,-0.981 9.572,-0.737 9.572,-1.472 9.327,-1.473 9.327,-1.718 9.572,-2.209 9.081,-2.455 9.082,-2.209 9.081,-2.699 8.836,-2.946 8.836,-3.19 8.836,-3.191 8.59,-3.682 8.591,-3.681 8.59,-3.928 8.1,-4.172 8.345,-4.418 15.954,-9.081 15.708,-10.064 14.972,-10.553 14.235,-11.536 13.991,-11.781 13.254,-12.518 12.763,-13.745 12.026,-13.745 11.045,-14.481 11.045,-14.726 9.572,-15.463 9.572,-16.199 4.173,-8.345 3.927,-8.1 4.173,-8.345 3.681,-8.59 3.436,-8.836 3.682,-8.345 2.7,-8.836 2.945,-9.327 2.7,-8.836 2.7,-9.081 1.964,-9.327 2.208,-9.081 1.719,-9.573 1.718,-9.326 1.227,-9.818 1.227,-9.327 0.736,-9.817 0.737,-9.818 0.245,-9.572 0.246,-10.063 -0.246,-10.064 -0.245,-9.572 -0.737,-9.817 -0.736,-9.818 -1.227,-9.572 -1.227,-9.573 -1.718,-9.326 -1.719,-9.327 -2.208,-9.327 -1.964,-9.327 -2.7,-9.081 -2.7,-8.836 -2.945,-9.081 -2.7,-8.836 -3.682,-8.591 -3.436,-8.836 -3.681,-8.59 -4.173,-8.345 -3.927,-8.345 -4.173,-8.1 -9.572,-16.199 -9.572,-15.217 -11.045,-15.218 -11.045,-14.235 -12.026,-14.236 -12.763,-13.254 -13.254,-12.763 -13.991,-12.027 -14.235,-11.044 -0.246,-0.246 104.313,-139.411 10.554,8.345 10.309,8.345 10.309,8.591 9.817,8.835 9.818,9.082 9.818,9.327 9.081,9.572 9.081,9.818 8.836,9.817 8.836,10.309 8.345,10.308 8.345,10.554 7.609,11.045 7.609,10.8 7.363,11.29 7.118,11.536 6.872,11.536 6.627,11.781 6.136,12.026 6.136,12.027 5.645,12.027 5.645,12.517 4.909,12.518 4.909,12.763 4.663,13.008 4.173,13.009 3.682,13.008 3.927,13.499 3.19,13.009 2.946,13.745 2.7,13.499 1.963,13.745 2.209,13.99 1.227,13.99 1.473,14.236 0.982,14.235 0.245,13.991 0.246,14.481 -0.246,14.481 -0.245,13.99 -0.982,14.235 -1.473,14.236 -1.227,13.99 -2.209,13.991 -1.963,13.499 -2.7,13.745 -2.946,13.744 -3.19,13.254 -3.927,13.254 -3.682,13.254 -4.173,13.008 -4.663,12.763 -4.909,12.763 -4.909,12.273 -5.645,12.517 -5.645,12.027 -6.136,12.272 -6.136,12.026 -6.627,11.782 -6.872,11.535 -7.118,11.045 -7.363,11.291 -7.609,11.29 -7.609,10.799 -8.345,10.554 -8.345,10.309 -8.836,10.309 -8.836,10.063 -9.081,9.817 -9.081,9.327 -9.818,9.327 -9.818,9.327 -9.817,8.836 -10.309,8.345 -10.309,8.59 -10.554,8.1 -11.045,7.854 -10.799,7.609 -11.29,7.363 -11.536,7.118 -11.536,6.872 -11.781,6.627 -11.781,6.381 -12.027,5.891 -12.272,5.891 -12.518,5.154 -12.517,5.4 -12.763,4.663 -13.009,4.418 -13.008,4.418 -12.763,3.927 -13.254,3.436 -13.745,3.191 -13.499,2.945 -13.499,2.7 -13.745,2.455 -13.99,1.963 -13.991,1.473 -13.99,1.227 -14.235,0.982 -14.236,0.491 z"
         style="fill:#15304e;fill-opacity:1;fill-rule:evenodd;stroke:none"
         id="path94"
         inkscape:connector-curvature="0" /></g><g
       id="g96"
       transform="translate(1110.2061,1073.2931)"><path
         d="m 0,0 7.728,-434.172 -10.282,-5.204 -21.95,-15.641 7.425,456.686 c 0.242,9.007 4.261,15.932 8.977,15.474 C -3.386,16.679 0.24,9.007 0,0"
         style="fill:#15304e;fill-opacity:1;fill-rule:nonzero;stroke:none"
         id="path98"
         inkscape:connector-curvature="0" /></g><g
       id="g100"
       transform="translate(1068.2063,1069.8165)"><path
         d="m 0,0 h 56.747 c 22.834,0 23.808,48.099 0,48.099 H 0.89 c 0,0 -33.194,-14.127 -33.193,-24.05 C -32.302,14.126 0,0 0,0"
         style="fill:#15304e;fill-opacity:1;fill-rule:nonzero;stroke:none"
         id="path102"
         inkscape:connector-curvature="0" /></g><g
       id="g104"
       transform="translate(1047.6713,1087.8849)"><path
         d="m 0,0 c 2.667,3.093 3.35,8.905 1.398,13.259 -1.951,4.358 -5.266,4.533 -8.26,2.058 0,0 -15.583,-12.781 -22.534,-18.627 -6.677,-5.622 -15.827,0.744 -30.748,-15.628 -14.939,-16.39 -91.491,-133.175 -91.491,-133.175 -2.04,-3.702 -2.397,-8.115 -0.441,-12.459 1.957,-4.353 5.465,-5.627 8.129,-2.531 z"
         style="fill:#2375a6;fill-opacity:1;fill-rule:nonzero;stroke:none"
         id="path106"
         inkscape:connector-curvature="0" /></g><g
       id="g108"
       transform="translate(1046.8279,1103.9689)"><path
         d="m 0,0 c -3.023,2.229 -6.489,0.35 -7.821,-4.505 -1.336,-4.856 0.268,-9.579 3.129,-12.565 0,0 14.838,-15.588 21.531,-22.461 6.434,-6.607 10.423,-34.496 26.843,-47.402 16.439,-12.919 115.547,-51.172 115.547,-51.172 3.033,-1.054 5.578,0.596 6.905,5.457 1.329,4.861 0.212,10.393 -2.814,12.609 z"
         style="fill:#2375a6;fill-opacity:1;fill-rule:nonzero;stroke:none"
         id="path110"
         inkscape:connector-curvature="0" /></g><g
       id="g112"
       transform="translate(1038.7189,1095.1732)"><path
         d="m 0,0 c 0.356,-5.317 3.138,-9.252 6.423,-8.749 3.286,0.497 4.993,5.046 5.133,10.504 0,0 0.744,28.368 0.998,41.094 0.243,12.226 18.899,31.95 17.399,61.225 -1.504,29.31 -37.547,186.147 -37.547,186.147 -0.99,4.753 -3.18,7.514 -6.466,7.005 -3.284,-0.509 -5.678,-4.769 -5.317,-10.088 z"
         style="fill:#2375a6;fill-opacity:1;fill-rule:nonzero;stroke:none"
         id="path114"
         inkscape:connector-curvature="0" /></g><g
       id="g116"
       transform="translate(1050.566,1108.4756)"><path
         d="M 0,0 C 0,0 -22.437,-10.173 -22.437,-15.974 -22.437,-21.775 0,-30.391 0,-30.391"
         style="fill:#15304e;fill-opacity:1;fill-rule:nonzero;stroke:none"
         id="path118"
         inkscape:connector-curvature="0" /></g><g
       id="g120"
       transform="translate(567.8154,932.9401)"><path
         d="M 0,0 C 0,0 20.211,-321.903 285.678,-340.141 148.531,-238.934 157.807,-100.823 157.807,-100.823 Z"
         style="fill:#ffffff;fill-opacity:1;fill-rule:nonzero;stroke:none"
         id="path122"
         inkscape:connector-curvature="0" /></g></g></g><g
   id="g124"
   transform="translate(-251.59929,-196.08547)"
   inkscape:export-xdpi="18.339914"
   inkscape:export-ydpi="18.339914"><g
     id="g126"
     clip-path="url(#clipPath130)"><g
       id="g132"><g
         id="g134"><path
           d="m 575.998,874.946 43.75,-22.38 c -0.782,7.937 -1.31,16.013 -1.547,24.237 v 0 c -0.146,7.961 -0.072,15.92 0.574,23.877 v 0 l -51.777,33.08 c 0,0 1.496,-23.793 9,-58.814 m 54.866,1.933 c -0.032,-10.454 0.418,-20.675 1.309,-30.668 v 0 l 29.175,-14.925 c -1.092,10.412 -1.648,20.874 -1.636,31.325 v 0 c 0.038,3.937 0.133,7.607 0.457,11.621 v 0 l -28.678,18.322 c -0.382,-5.218 -0.559,-10.468 -0.627,-15.675 m 41.693,-25.638 c 0.019,-8.788 0.453,-17.582 1.279,-26.342 v 0 l 19.654,-10.054 c -0.029,0.201 -0.067,0.399 -0.097,0.601 v 0 c -1.81,12.989 -2.974,26.038 -2.561,39.196 v 0 l -17.821,11.386 c -0.326,-4.92 -0.457,-9.895 -0.454,-14.787 M 588.732,826.562 626.89,809.68 c -2.508,10.503 -4.499,21.312 -5.949,32.421 v 0 l -41.642,18.406 c 2.586,-10.649 5.696,-22.055 9.433,-33.945 m 116.392,-9.674 c 0.295,-2.852 0.632,-5.688 1.006,-8.509 v 0 l 20.972,-10.728 c -2.934,21.631 -2.029,35.115 -2.029,35.115 v 0 l -21.188,13.536 c -0.258,-9.799 0.298,-19.667 1.239,-29.414 m -66.309,-12.485 29.504,-13.054 c -2.636,10.71 -4.674,21.57 -6.1,32.506 v 0 L 633.158,836.7 c 1.325,-11.069 3.222,-21.835 5.657,-32.297 m 41.386,-18.311 21.578,-9.547 c -3.07,10.752 -5.563,21.796 -7.448,33.116 v 0 l -19.816,8.758 c 1.274,-10.871 3.173,-21.672 5.686,-32.327 m -75.807,-2.317 34.752,-13.24 c -3.648,9.274 -6.847,18.841 -9.577,28.694 v 0 l -36.345,13.72 c 3.3,-9.542 7.009,-19.311 11.17,-29.174 m 109.148,-12.434 20.784,-9.197 c -3.287,12.149 -5.447,23.247 -6.849,32.866 v 0 l -20.758,9.175 c 1.654,-11.213 3.941,-22.166 6.823,-32.844 m -62.921,-5.178 29.191,-11.121 c -3.689,9.427 -6.873,19.056 -9.553,28.827 v 0 l -29.06,10.97 c 2.654,-9.849 5.802,-19.41 9.422,-28.676 m 40.418,-15.399 22.995,-8.761 c -4.08,9.53 -7.687,19.33 -10.763,29.405 v 0 l -21.439,8.093 c 2.545,-9.741 5.623,-19.338 9.207,-28.737 m -67.752,-6.107 33.654,-11.075 c -5.041,8.737 -9.623,17.806 -13.731,27.193 v 0 l -33.355,10.584 c 4.084,-8.902 8.549,-17.835 13.432,-26.702 m 101.589,-6.784 20.104,-7.66 c -4.056,10.179 -7.311,19.972 -9.903,29.189 v 0 l -20.35,7.681 c 2.865,-9.989 6.253,-19.734 10.149,-29.21 m -56.855,-7.938 27.989,-9.211 c -4.991,8.927 -9.473,18.135 -13.445,27.563 v 0 l -28.267,8.969 c 4.08,-9.432 8.657,-18.545 13.723,-27.321 m 38.489,-12.667 24.009,-7.901 c -5.377,9.131 -10.248,18.588 -14.613,28.34 v 0 l -22.536,7.151 c 3.853,-9.437 8.229,-18.658 13.14,-27.59 m 33.84,-11.137 18.704,-6.156 c -5.161,9.635 -9.557,19.098 -13.284,28.255 v 0 l -19.435,6.167 c 4.148,-9.712 8.831,-19.139 14.015,-28.266 m -89.355,-4.359 35.32,-9.61 c -8.138,9.466 -15.628,19.462 -22.412,29.986 v 0 l -32.627,8.693 c 6.004,-9.885 12.559,-19.621 19.719,-29.069 m 45.937,-12.498 25.114,-6.833 c -2.359,2.961 -5.445,6.937 -6.275,7.948 v 0 c -5.323,7.047 -10.262,14.363 -14.838,21.895 v 0 l -26.458,7.048 c 6.769,-10.547 14.276,-20.567 22.457,-30.058 m 30.564,-4.186 c 0.923,-1.335 2.473,-3.109 3.492,-4.37 v 0 c 0.243,-0.296 0.497,-0.608 0.748,-0.913 v 0 l 23.899,-6.502 c -7.813,9.586 -14.988,19.648 -21.512,30.139 v 0 l -23.235,6.19 c 5.048,-8.483 10.578,-16.689 16.608,-24.544 m 36.386,-14.029 15.872,-4.318 c -7.1,9.912 -13.284,19.794 -18.673,29.52 v 0 l -17.739,4.726 c 6.198,-10.393 13.059,-20.376 20.54,-29.928 m -74.48,-11.141 40.389,-8.602 c -12.385,9.427 -23.875,19.707 -34.404,30.805 v 0 l -34.486,7.25 c 8.684,-10.328 18.157,-20.214 28.501,-29.453 m 50.141,-10.679 20.248,-4.312 c -7.522,6.124 -14.732,12.625 -21.524,19.564 v 0 c -3.359,3.223 -6.77,7.044 -10.018,10.72 v 0 l -22.99,4.834 c 10.468,-11.08 21.921,-21.359 34.284,-30.806 m 2.396,18.742 c 8.093,-8.895 16.813,-17.136 26.019,-24.792 v 0 l 20.773,-4.424 c -10.468,9.342 -20.221,19.308 -29.197,29.869 v 0 l -22.44,4.718 c 1.625,-1.903 3.268,-3.756 4.845,-5.371 m 52.608,-30.454 11.135,-2.372 c -8.913,9.538 -16.856,19.177 -23.917,28.806 v 0 l -14.685,3.087 c 8.429,-10.383 17.603,-20.236 27.467,-29.521 m 58.615,-44.485 c -42.21,10.942 -80.025,27.901 -112.363,50.284 v 0 l -38.6,5.862 c 38.469,-30.283 87.776,-51.806 150.963,-56.146 m 0,0 c -30.606,11.151 -60.225,26.475 -86.31,46.328 v 0 l -17.454,2.65 c 30.045,-21.092 64.954,-37.571 103.764,-48.978 m 0,0 c -1.489,1.098 -2.962,2.203 -4.417,3.31 v 0 c -20.434,11.31 -39.263,24.415 -56.286,39.129 v 0 l -18.437,2.8 c 23.922,-18.782 50.905,-33.716 79.14,-45.239 m -4.425,3.316 c -15.626,11.895 -29.278,24.268 -41.22,36.837 v 0 l -9.931,1.508 c 15.487,-14.194 32.605,-27.024 51.151,-38.345 m 0.008,-0.006 c 0.008,-0.005 0.014,-0.008 0.022,-0.012 v 0 c -0.01,0.006 -0.019,0.012 -0.03,0.018 v 0 c 0.003,-0.003 0.005,-0.004 0.008,-0.006"
           style="fill:url(#linearGradient146);stroke:none"
           id="path148"
           inkscape:connector-curvature="0" /></g></g></g></g><text
   transform="scale(1,-1)"
   style="font-variant:normal;font-weight:900;font-stretch:normal;font-size:190px;font-family:'Roboto Black';-inkscape-font-specification:Roboto-Black;writing-mode:lr-tb;fill:#000000;fill-opacity:1;fill-rule:nonzero;stroke:none"
   id="text156"
   x="62.850899"
   y="-72.96434"
   inkscape:export-xdpi="18.339914"
   inkscape:export-ydpi="18.339914"><tspan
     x="62.850899 169.2509 332.84085 455.27686 562.05688 699.99689 803.35687 875.36688 999.05688 1051.3069 1152.1969"
     y="-72.96434"
     sodipodi:role="line"
     id="tspan154">EmPowerPlan</tspan></text>
<g
   id="g158"
   transform="translate(-251.59929,-196.08547)"
   inkscape:export-xdpi="18.339914"
   inkscape:export-ydpi="18.339914"><g
     id="g160"
     clip-path="url(#clipPath164)"><g
       id="g166"
       transform="translate(1127.3436,922.879)"><path
         d="m 0,0 c 0,0 2.752,-233.885 -274.182,-329.911 0,0 192.645,-89.684 338.479,266.635 z"
         style="fill:#7bbf81;fill-opacity:1;fill-rule:evenodd;stroke:none"
         id="path168"
         inkscape:connector-curvature="0" /></g><g
       id="g170"
       transform="translate(1147.2927,902.2421)"><path
         d="M 0,0 C 0,0 -8.026,-270.573 -294.131,-309.274 -29.307,-386.186 72.763,-149.665 81.86,-78.705 Z"
         style="fill:#91c88c;fill-opacity:1;fill-rule:evenodd;stroke:none"
         id="path172"
         inkscape:connector-curvature="0" /></g></g></g></g></svg>
