<?xml version="1.0" encoding="UTF-8"?><svg id="Ebene_2" xmlns="http://www.w3.org/2000/svg" viewBox="0 0 96.6 24.35"><defs><style>.cls-1{fill:#f2c639;}.cls-2{fill:#1d1d1b;}</style></defs><g id="Ebene_1-2"><g><path class="cls-1" d="M33.52,10.02V5.46s0-.5-.42-.21l-3.46,2.2s-.42,.29,0,.58l3.46,2.2s.42,.29,.42-.21"/><path class="cls-2" d="M30.48,20c-1.81-.02-2.13-.91-2.13-3.07V1.92s0-.34-.34-.25l-3.62,1.05s-.34,.09-.34,.43v2.6s0,.34-.35,.34h-1.1s-.35,0-.35,.34v2.63s0,.34,.35,.34h1.1s.35,0,.35,.34v7.7c0,2.31,.48,3.76,1.55,4.76,.91,.9,2.38,1.44,4.21,1.44,1.51,0,2.22-.39,2.22-.39,0,0,.34-.08,.34-.42v-2.5s0-.34-.3-.34-.48,.02-1.35,0"/><path class="cls-2" d="M21.67,23.29v-2.78s0-.34-.32-.34H11.69c.67-.76,1.75-2.09,2.63-3.14l6.29-7.99s.21-.26,.21-.6v-2.02s0-.34-.32-.34H6.68s-.32,0-.32,.34v2.78s0,.34,.32,.34c0,0,8.39,0,8.72,0-.69,.76-1.73,2.02-2.64,3.1l-6.47,8.17s-.21,.26-.21,.6v1.88s0,.34,.32,.34h14.95s.32,0,.32-.34"/><path class="cls-2" d="M.3,6.42V23.29s0,.34,.35,.34h3.6s.35,0,.35-.34V6.42s0-.34-.35-.34H.65s-.35,0-.35,.34"/><path class="cls-2" d="M4.9,2.38c-.04-1.35-.96-2.38-2.45-2.38S0,1.03,0,2.38c0,1.28,.96,2.35,2.42,2.35s2.49-1.07,2.49-2.35h0Z"/><path class="cls-2" d="M40.69,19.33s-.01-.04-.02-.05c0-.01-.02-.03-.03-.03-.01,0-.03-.01-.04-.01h-2.76s-.03,0-.04,.01c-.01,0-.02,.02-.03,.03,0,.01-.01,.03-.02,.05,0,.02,0,.05,0,.08,0,.03,0,.05,0,.07,0,.02,.01,.04,.02,.05,0,.01,.02,.02,.03,.03,.01,0,.03,.01,.04,.01h1.19v3.59s0,.02,0,.03c0,.01,.02,.02,.03,.02,.01,0,.03,.01,.06,.02,.02,0,.05,0,.09,0s.06,0,.09,0c.02,0,.04,0,.06-.02,.01,0,.02-.01,.03-.02,0-.01,0-.02,0-.03v-3.59h1.19s.03,0,.04-.01c.01,0,.02-.02,.03-.03s.01-.03,.02-.05c0-.02,0-.04,0-.07,0-.03,0-.05,0-.08h0Zm2.34,2.22c0-.17-.02-.34-.07-.49-.04-.16-.11-.29-.21-.41-.1-.12-.22-.21-.37-.28-.15-.07-.33-.1-.54-.1-.2,0-.37,.03-.53,.1-.16,.07-.3,.17-.41,.3-.11,.13-.2,.29-.26,.48-.06,.19-.09,.4-.09,.64s.03,.46,.09,.65c.06,.19,.14,.34,.26,.47,.11,.13,.25,.22,.42,.29,.17,.06,.36,.1,.57,.1,.13,0,.25-.01,.37-.03,.11-.02,.21-.04,.3-.07,.09-.03,.16-.05,.21-.08,.05-.03,.09-.04,.1-.05,.01-.01,.02-.02,.02-.03,0-.01,.01-.02,.01-.03s0-.02,0-.04c0-.01,0-.03,0-.04,0-.03,0-.06,0-.08,0-.02,0-.04-.01-.05,0-.01-.01-.02-.02-.03-.01,0-.02,0-.03,0-.02,0-.06,.01-.1,.03-.05,.02-.11,.05-.19,.08-.08,.03-.16,.05-.27,.08-.1,.02-.22,.03-.35,.03-.18,0-.34-.03-.46-.08-.13-.05-.23-.13-.31-.23-.08-.1-.13-.22-.17-.36-.03-.14-.05-.3-.05-.47h1.9s.08-.01,.11-.04c.04-.03,.06-.08,.06-.15v-.07h0Zm-2.08-.03c0-.12,.03-.24,.07-.36,.04-.11,.1-.21,.17-.3,.07-.09,.16-.16,.27-.21,.11-.05,.23-.08,.37-.08,.27,0,.48,.08,.62,.25,.14,.17,.21,.4,.2,.69h-1.7Zm4.93,1.16s0-.04-.01-.06c0-.02-.01-.03-.02-.03,0,0-.02-.01-.03-.01-.02,0-.06,.02-.1,.06-.05,.04-.1,.08-.17,.13-.07,.05-.15,.09-.25,.13-.09,.04-.2,.06-.33,.06-.13,0-.25-.02-.35-.07-.1-.05-.19-.12-.27-.22-.07-.1-.13-.22-.17-.37-.04-.15-.06-.32-.06-.51,0-.39,.07-.69,.22-.89,.14-.21,.35-.31,.62-.31,.13,0,.24,.02,.33,.06,.09,.04,.17,.08,.24,.12,.07,.04,.12,.08,.16,.12,.04,.04,.08,.06,.11,.06,.02,0,.04-.01,.06-.04,.02-.02,.03-.07,.03-.12,0-.03,0-.05,0-.07,0-.02,0-.04-.01-.05,0-.02-.01-.03-.02-.04,0-.01-.03-.03-.05-.06-.03-.03-.07-.06-.12-.09-.06-.04-.12-.07-.19-.1-.07-.03-.15-.05-.23-.07s-.17-.03-.27-.03c-.17,0-.33,.03-.49,.09-.15,.06-.28,.15-.4,.27-.11,.12-.2,.28-.27,.47-.06,.19-.1,.43-.1,.7,0,.24,.03,.45,.08,.64,.05,.18,.13,.34,.23,.47,.1,.13,.23,.22,.37,.29,.15,.06,.32,.1,.51,.1,.1,0,.19,0,.28-.03,.09-.02,.17-.04,.25-.08,.08-.03,.15-.07,.21-.11,.06-.04,.11-.07,.13-.1s.04-.05,.05-.06c0-.01,.01-.02,.02-.04,0-.01,0-.03,0-.05,0-.02,0-.04,0-.07,0-.03,0-.05,0-.08h0Zm3.07-1.2c0-.2-.02-.37-.05-.51-.03-.14-.09-.26-.17-.37-.08-.1-.18-.19-.3-.25-.13-.06-.28-.09-.46-.09-.15,0-.3,.04-.46,.12-.15,.08-.3,.2-.46,.37v-1.74s0-.02,0-.03c0-.01-.02-.02-.03-.03-.01,0-.03-.01-.06-.02-.02,0-.05,0-.09,0-.03,0-.06,0-.09,0-.02,0-.04,0-.06,.02-.01,0-.02,.02-.03,.03,0,.01,0,.02,0,.03v4.16s0,.02,0,.03c0,.01,.01,.02,.03,.02,.01,0,.03,.01,.06,.02,.02,0,.05,0,.09,0,.04,0,.07,0,.09,0,.02,0,.04,0,.06-.02,.01,0,.02-.01,.03-.02,0-.01,0-.02,0-.03v-2c.16-.2,.31-.34,.45-.44,.14-.1,.28-.15,.43-.15,.11,0,.21,.02,.29,.06,.08,.04,.15,.1,.21,.18,.05,.08,.09,.17,.12,.28,.03,.11,.04,.25,.04,.42v1.66s0,.02,0,.03c0,.01,.02,.02,.03,.02,.01,0,.03,.01,.06,.02,.02,0,.05,0,.09,0,.03,0,.06,0,.09,0,.02,0,.04,0,.06-.02,.01,0,.02-.01,.03-.02,0-.01,0-.02,0-.03v-1.69h0Zm3.34,0c0-.2-.02-.37-.05-.51-.03-.14-.09-.26-.17-.37-.08-.1-.18-.19-.3-.25-.13-.06-.28-.09-.46-.09-.15,0-.31,.04-.46,.12-.15,.08-.31,.21-.47,.39v-.39s0-.02,0-.03c0-.01-.01-.02-.03-.03-.01,0-.03-.01-.05-.02-.02,0-.05,0-.09,0s-.06,0-.08,0c-.02,0-.04,0-.05,.02-.01,0-.02,.02-.03,.03,0,.01,0,.02,0,.03v2.79s0,.02,0,.03c0,.01,.01,.02,.03,.02,.01,0,.03,.01,.06,.02,.02,0,.05,0,.09,0,.04,0,.07,0,.09,0,.02,0,.04,0,.06-.02,.01,0,.02-.01,.03-.02,0-.01,0-.02,0-.03v-2c.16-.2,.31-.34,.45-.44,.14-.1,.28-.15,.43-.15,.11,0,.21,.02,.29,.06,.08,.04,.15,.1,.21,.18s.09,.17,.12,.28c.03,.11,.04,.25,.04,.42v1.66s0,.02,0,.03c0,.01,.02,.02,.03,.02,.01,0,.03,.01,.06,.02,.02,0,.05,0,.09,0,.03,0,.06,0,.09,0,.02,0,.04,0,.06-.02,.01,0,.02-.01,.03-.02,0-.01,0-.02,0-.03v-1.69h0Zm3.47-.35c-.06-.18-.14-.34-.25-.47-.11-.13-.25-.23-.41-.29-.16-.07-.35-.1-.57-.1s-.43,.04-.6,.11c-.17,.08-.31,.18-.43,.32-.11,.14-.2,.3-.26,.49-.06,.19-.08,.39-.08,.61s.03,.44,.08,.62c.05,.18,.14,.34,.25,.47,.11,.13,.25,.23,.41,.3,.16,.07,.35,.1,.57,.1s.42-.04,.6-.12c.17-.08,.31-.18,.43-.32s.2-.3,.26-.49c.06-.19,.09-.39,.09-.61s-.03-.43-.08-.62h0Zm-.36,1.12c-.04,.14-.09,.27-.17,.37-.08,.1-.18,.19-.3,.25-.12,.06-.27,.09-.43,.09-.18,0-.33-.03-.45-.1-.12-.06-.22-.15-.29-.26-.07-.11-.12-.24-.15-.38-.03-.14-.05-.3-.05-.46s.02-.32,.06-.47c.04-.14,.09-.27,.17-.37s.18-.19,.3-.25c.12-.06,.27-.09,.43-.09,.18,0,.33,.03,.45,.1,.12,.06,.22,.15,.29,.26,.07,.11,.12,.24,.15,.38,.03,.14,.05,.3,.05,.45,0,.17-.02,.32-.06,.47h0Zm1.7-3.23s0-.02,0-.03c0-.01-.02-.02-.03-.03-.01,0-.03-.01-.06-.02-.02,0-.05,0-.09,0-.04,0-.06,0-.09,0-.02,0-.04,0-.06,.02-.01,0-.02,.02-.03,.03,0,.01,0,.02,0,.03v4.16s0,.02,0,.03c0,.01,.01,.02,.03,.02,.01,0,.03,.01,.06,.02,.02,0,.05,0,.09,0,.04,0,.07,0,.09,0,.02,0,.04,0,.06-.02,.01,0,.02-.01,.03-.02,0-.01,0-.02,0-.03v-4.16h0Zm3.48,2.12c-.06-.18-.14-.34-.25-.47-.11-.13-.25-.23-.41-.29-.16-.07-.35-.1-.57-.1s-.43,.04-.6,.11c-.17,.08-.31,.18-.43,.32-.11,.14-.2,.3-.26,.49-.06,.19-.08,.39-.08,.61s.03,.44,.08,.62c.05,.18,.14,.34,.25,.47,.11,.13,.25,.23,.41,.3,.16,.07,.35,.1,.57,.1s.42-.04,.6-.12c.17-.08,.31-.18,.43-.32s.2-.3,.26-.49c.06-.19,.09-.39,.09-.61s-.03-.43-.08-.62h0Zm-.36,1.12c-.04,.14-.09,.27-.17,.37-.08,.1-.18,.19-.3,.25-.12,.06-.27,.09-.43,.09-.18,0-.33-.03-.45-.1-.12-.06-.22-.15-.29-.26-.07-.11-.12-.24-.15-.38-.03-.14-.05-.3-.05-.46s.02-.32,.06-.47c.04-.14,.09-.27,.17-.37,.08-.11,.18-.19,.3-.25,.12-.06,.27-.09,.43-.09,.18,0,.33,.03,.45,.1,.12,.06,.22,.15,.29,.26,.07,.11,.12,.24,.15,.38,.03,.14,.05,.3,.05,.45,0,.17-.02,.32-.06,.47h0Zm3.54-1.89s-.04-.04-.08-.04h-.82c-.06-.01-.12-.03-.2-.04-.07,0-.15-.01-.23-.01-.15,0-.29,.02-.42,.07s-.24,.11-.33,.2c-.09,.09-.16,.19-.21,.32-.05,.12-.08,.26-.08,.42,0,.13,.02,.24,.05,.33,.03,.09,.08,.18,.14,.26-.07,.08-.13,.17-.18,.26-.05,.1-.07,.21-.07,.34,0,.09,.02,.17,.07,.24,.05,.08,.13,.14,.23,.19-.07,.06-.12,.11-.17,.16-.05,.05-.09,.11-.13,.17-.03,.06-.06,.12-.08,.18-.02,.06-.02,.13-.02,.2,0,.1,.02,.2,.07,.29,.04,.09,.12,.17,.21,.24,.1,.07,.22,.12,.38,.16,.15,.04,.34,.06,.56,.06s.42-.03,.59-.08c.16-.05,.3-.12,.41-.2,.11-.09,.18-.18,.23-.3,.05-.11,.08-.23,.08-.35s-.02-.22-.07-.31c-.05-.09-.12-.16-.2-.22-.08-.06-.18-.11-.29-.14-.11-.03-.23-.05-.36-.05l-.76-.03c-.12,0-.22-.03-.29-.09-.08-.05-.11-.12-.11-.2,0-.07,.01-.13,.04-.19,.03-.05,.06-.1,.1-.14,.06,.05,.15,.09,.27,.13,.11,.04,.23,.05,.36,.05,.15,0,.3-.02,.42-.07,.13-.05,.24-.11,.33-.2,.09-.09,.16-.19,.21-.31,.05-.12,.08-.26,.08-.42,0-.12-.02-.22-.05-.33-.03-.1-.09-.2-.18-.29h.44s.05-.01,.07-.03c.02-.02,.03-.06,.03-.12,0-.05,0-.09-.02-.12h0Zm-.7,1.15c-.03,.08-.07,.16-.12,.22-.05,.06-.12,.11-.21,.15-.08,.04-.18,.06-.29,.06-.21,0-.37-.06-.49-.18-.12-.12-.17-.28-.17-.49,0-.09,.01-.18,.04-.27,.03-.08,.07-.16,.12-.22,.05-.06,.12-.11,.2-.15,.08-.04,.18-.06,.29-.06,.21,0,.38,.06,.49,.18,.12,.12,.17,.28,.17,.5,0,.09-.01,.18-.04,.26h0Zm.29,2.16c-.03,.07-.08,.14-.15,.19-.07,.06-.17,.1-.28,.13-.12,.03-.26,.05-.43,.05-.27,0-.49-.04-.64-.12-.15-.08-.23-.19-.23-.35,0-.05,0-.09,.02-.14,.01-.05,.03-.09,.06-.14,.03-.05,.07-.1,.11-.15,.05-.05,.11-.11,.18-.16l.81,.03c.19,0,.33,.05,.44,.12,.11,.07,.16,.18,.16,.31,0,.08-.02,.15-.05,.23h0Zm1.6-3.29s0-.02,0-.03c0-.01-.02-.02-.03-.03-.01,0-.03-.01-.06-.02-.02,0-.05,0-.09,0-.04,0-.06,0-.09,0-.02,0-.04,0-.06,.02-.01,0-.02,.02-.03,.03,0,.01,0,.02,0,.03v2.79s0,.02,0,.03c0,.01,.01,.02,.03,.02,.01,0,.03,.01,.06,.02,.02,0,.05,0,.09,0,.04,0,.07,0,.09,0,.02,0,.04,0,.06-.02,.01,0,.02-.01,.03-.02,0-.01,0-.02,0-.03v-2.79h0Zm0-1.14s-.1-.05-.19-.05-.16,.02-.19,.05c-.03,.03-.05,.1-.05,.2s.02,.16,.05,.2c.03,.03,.1,.05,.19,.05s.16-.02,.19-.05c.03-.03,.05-.1,.05-.2s-.02-.16-.05-.2h0Zm3.36,2.32c0-.17-.02-.34-.07-.49-.04-.16-.11-.29-.21-.41-.1-.12-.22-.21-.37-.28-.15-.07-.33-.1-.54-.1-.2,0-.37,.03-.53,.1-.16,.07-.3,.17-.41,.3-.11,.13-.2,.29-.26,.48-.06,.19-.09,.4-.09,.64s.03,.46,.09,.65c.06,.19,.14,.34,.26,.47,.11,.13,.25,.22,.42,.29,.17,.06,.36,.1,.57,.1,.13,0,.25-.01,.37-.03,.11-.02,.21-.04,.3-.07,.09-.03,.16-.05,.21-.08,.05-.03,.09-.04,.1-.05,.01-.01,.02-.02,.02-.03,0-.01,.01-.02,.01-.03,0-.01,0-.02,0-.04,0-.01,0-.03,0-.04,0-.03,0-.06,0-.08,0-.02,0-.04-.01-.05,0-.01-.01-.02-.02-.03-.01,0-.02,0-.03,0-.02,0-.06,.01-.1,.03-.05,.02-.11,.05-.19,.08-.08,.03-.16,.05-.27,.08-.1,.02-.22,.03-.35,.03-.18,0-.34-.03-.46-.08-.13-.05-.23-.13-.31-.23-.08-.1-.13-.22-.17-.36-.03-.14-.05-.3-.05-.47h1.9s.08-.01,.11-.04c.04-.03,.06-.08,.06-.15v-.07h0Zm-2.08-.03c0-.12,.03-.24,.07-.36,.04-.11,.1-.21,.17-.3,.07-.09,.16-.16,.27-.21,.11-.05,.23-.08,.37-.08,.27,0,.48,.08,.62,.25,.14,.17,.21,.4,.2,.69h-1.7Zm5.36-.35c-.04-.18-.11-.34-.2-.47-.09-.13-.21-.24-.35-.32-.14-.08-.31-.12-.52-.12-.08,0-.16,0-.23,.02-.08,.02-.15,.04-.23,.08-.08,.04-.15,.09-.23,.15-.08,.06-.16,.14-.25,.23v-1.74s0-.02,0-.03c0-.01-.02-.02-.03-.03s-.03-.01-.06-.02c-.02,0-.05,0-.09,0-.04,0-.06,0-.09,0-.02,0-.04,0-.06,.02-.01,0-.02,.02-.03,.03,0,.01,0,.02,0,.03v4.16s0,.03,0,.04c0,.01,.01,.02,.03,.02,.01,0,.03,.01,.05,.01,.02,0,.05,0,.08,0s.06,0,.08,0c.02,0,.04,0,.05-.01,.01,0,.02-.01,.03-.02,0-.01,0-.02,0-.04v-.36c.08,.08,.16,.16,.24,.22,.07,.06,.14,.11,.21,.15,.07,.04,.14,.07,.21,.08,.07,.02,.15,.03,.24,.03,.19,0,.36-.04,.51-.11,.15-.07,.27-.17,.38-.31,.1-.13,.18-.3,.23-.49,.05-.19,.08-.4,.08-.64,0-.2-.02-.39-.06-.57h0Zm-.37,1.05c-.03,.14-.08,.27-.14,.38-.06,.11-.15,.2-.25,.27-.1,.07-.22,.1-.36,.1-.15,0-.3-.05-.45-.15-.14-.1-.29-.24-.45-.43v-1.21c.09-.11,.17-.2,.25-.28,.08-.08,.16-.14,.23-.18,.07-.05,.15-.08,.22-.1,.07-.02,.14-.03,.21-.03,.15,0,.27,.03,.37,.1,.1,.07,.18,.16,.24,.27,.06,.11,.1,.24,.13,.39,.02,.15,.04,.3,.04,.45,0,.14-.01,.28-.04,.42h0Zm3.61-.66c0-.17-.02-.34-.07-.49-.04-.16-.11-.29-.21-.41-.1-.12-.22-.21-.37-.28-.15-.07-.33-.1-.54-.1-.2,0-.37,.03-.53,.1-.16,.07-.3,.17-.41,.3-.11,.13-.2,.29-.26,.48-.06,.19-.09,.4-.09,.64s.03,.46,.09,.65c.06,.19,.14,.34,.26,.47,.11,.13,.25,.22,.42,.29,.17,.06,.36,.1,.57,.1,.13,0,.25-.01,.37-.03,.11-.02,.21-.04,.3-.07,.09-.03,.16-.05,.21-.08,.05-.03,.09-.04,.1-.05,.01-.01,.02-.02,.02-.03,0-.01,.01-.02,.01-.03,0-.01,0-.02,0-.04,0-.01,0-.03,0-.04,0-.03,0-.06,0-.08,0-.02,0-.04-.01-.05,0-.01-.01-.02-.02-.03-.01,0-.02,0-.03,0-.02,0-.06,.01-.1,.03-.05,.02-.11,.05-.19,.08-.08,.03-.16,.05-.27,.08-.1,.02-.22,.03-.35,.03-.18,0-.34-.03-.46-.08-.13-.05-.23-.13-.31-.23-.08-.1-.13-.22-.17-.36-.03-.14-.05-.3-.05-.47h1.9s.07-.01,.11-.04c.04-.03,.06-.08,.06-.15v-.07h0Zm-2.07-.03c0-.12,.03-.24,.07-.36,.04-.11,.09-.21,.17-.3,.07-.09,.16-.16,.27-.21,.11-.05,.23-.08,.37-.08,.27,0,.48,.08,.62,.25,.14,.17,.21,.4,.2,.69h-1.7Zm6.65-1.19s-.01-.02-.02-.02c-.01,0-.03-.01-.05-.01-.02,0-.05,0-.08,0-.04,0-.07,0-.1,0-.03,0-.05,0-.06,.01-.01,0-.03,.01-.03,.02,0,.01-.01,.02-.02,.04l-.73,2.44v0l-.73-2.44s0-.03-.02-.04c0-.01-.02-.02-.03-.02-.01,0-.03-.01-.06-.01-.02,0-.05,0-.09,0-.04,0-.07,0-.09,0-.02,0-.04,0-.06,.01-.01,0-.02,.01-.03,.02,0,.01-.01,.02-.02,.04l-.67,2.44v0l-.75-2.44s0-.03-.01-.04c0-.01-.02-.02-.03-.02-.01,0-.03-.01-.06-.01-.03,0-.06,0-.1,0-.03,0-.06,0-.08,0-.02,0-.04,0-.05,.01-.01,0-.03,.01-.03,.02,0,.01,0,.02,0,.04,0,.01,0,.02,0,.04,0,.01,0,.03,.01,.04l.86,2.72s.01,.03,.02,.04c0,.01,.02,.02,.04,.02,.02,0,.04,.01,.07,.01,.03,0,.06,0,.1,0s.07,0,.1,0c.03,0,.06,0,.08-.01,.02,0,.04-.01,.05-.02,.01-.01,.02-.02,.02-.04l.6-2.2v0l.66,2.2s.01,.03,.02,.04c.01,.01,.03,.02,.05,.02,.02,0,.05,.01,.08,.01,.03,0,.07,0,.11,0,.04,0,.08,0,.11,0,.03,0,.05,0,.07-.01,.02,0,.03-.01,.04-.02,.01-.01,.02-.02,.02-.04l.86-2.72v-.04s.02-.03,.02-.04c0-.01,0-.03,0-.04h0Zm2.99,1.22c0-.17-.02-.34-.07-.49-.04-.16-.11-.29-.21-.41-.1-.12-.22-.21-.37-.28-.15-.07-.33-.1-.54-.1-.2,0-.37,.03-.53,.1-.16,.07-.3,.17-.41,.3-.11,.13-.2,.29-.26,.48-.06,.19-.09,.4-.09,.64s.03,.46,.09,.65c.06,.19,.14,.34,.26,.47,.11,.13,.25,.22,.42,.29,.17,.06,.36,.1,.57,.1,.13,0,.25-.01,.37-.03,.11-.02,.21-.04,.3-.07,.09-.03,.16-.05,.21-.08,.05-.03,.09-.04,.1-.05,0-.01,.02-.02,.02-.03,0-.01,.01-.02,.01-.03,0-.01,0-.02,0-.04,0-.01,0-.03,0-.04,0-.03,0-.06,0-.08,0-.02,0-.04-.01-.05,0-.01-.01-.02-.02-.03,0,0-.02,0-.03,0-.02,0-.05,.01-.1,.03s-.11,.05-.19,.08c-.07,.03-.16,.05-.27,.08-.1,.02-.22,.03-.35,.03-.18,0-.34-.03-.46-.08-.13-.05-.23-.13-.31-.23-.08-.1-.13-.22-.17-.36-.03-.14-.05-.3-.05-.47h1.9s.07-.01,.11-.04c.04-.03,.06-.08,.06-.15v-.07h0Zm-2.07-.03c0-.12,.03-.24,.07-.36,.04-.11,.1-.21,.17-.3,.07-.09,.16-.16,.27-.21,.11-.05,.23-.08,.37-.08,.27,0,.48,.08,.62,.25,.14,.17,.21,.4,.2,.69h-1.7Zm4.53-1.08s0-.03,0-.05c0-.01,0-.02-.01-.03,0,0-.01-.02-.02-.02-.01,0-.03-.02-.07-.03-.03-.01-.07-.02-.11-.03-.04,0-.08-.01-.11-.02-.04,0-.07,0-.09,0-.06,0-.12,0-.18,.02-.06,.01-.12,.04-.18,.08-.06,.04-.13,.1-.19,.17-.07,.07-.14,.17-.22,.28v-.44s0-.02,0-.03c0-.01-.01-.02-.03-.03-.01,0-.03-.01-.05-.02-.02,0-.05,0-.09,0s-.06,0-.08,0c-.02,0-.04,0-.05,.02-.01,0-.02,.02-.03,.03,0,.01,0,.02,0,.03v2.79s0,.02,0,.03c0,.01,.01,.02,.03,.02,.01,0,.03,.01,.06,.02,.02,0,.05,0,.09,0,.04,0,.07,0,.09,0,.02,0,.04,0,.06-.02,.01,0,.02-.01,.03-.02,0-.01,0-.02,0-.03v-1.89c.08-.13,.15-.23,.21-.32,.06-.09,.13-.16,.19-.21,.06-.05,.11-.09,.17-.11,.05-.02,.11-.04,.16-.04,.05,0,.09,0,.13,.01,.04,0,.07,.02,.11,.03,.03,.01,.06,.02,.09,.03,.02,0,.05,.01,.06,.01,.01,0,.02,0,.03-.01,0,0,.01-.02,.02-.03,0-.01,0-.03,.01-.05,0-.02,0-.05,0-.08s0-.06,0-.08h0Zm2.03,2.49s0-.03-.01-.04c0-.01-.01-.02-.02-.02,0,0-.02,0-.03,0-.02,0-.04,0-.06,.02-.02,.01-.05,.02-.08,.03-.03,.01-.07,.02-.11,.03-.04,.01-.08,.02-.13,.02-.16,0-.27-.06-.33-.17-.06-.11-.09-.27-.09-.48v-1.69h.77s.05-.01,.07-.04c.02-.03,.03-.06,.03-.12,0-.03,0-.05,0-.07,0-.02-.01-.04-.02-.05,0-.01-.02-.02-.03-.03-.01,0-.02,0-.04,0h-.77v-.68s0-.02,0-.03c0-.01-.02-.02-.03-.03-.01,0-.03-.01-.06-.02-.02,0-.05,0-.09,0s-.06,0-.09,0c-.02,0-.04,0-.06,.02-.01,0-.02,.02-.03,.03,0,.01,0,.02,0,.03v.68h-.42s-.03,0-.04,0c-.01,0-.02,.02-.03,.03,0,.01-.01,.03-.02,.05,0,.02,0,.04,0,.07,0,.05,0,.09,.02,.12,.02,.03,.04,.04,.07,.04h.42v1.74c0,.16,.01,.29,.04,.41,.03,.12,.07,.21,.13,.29,.06,.08,.14,.13,.24,.17,.1,.04,.21,.06,.35,.06,.04,0,.08,0,.13,0,.04,0,.08-.01,.12-.02,.04,0,.07-.02,.1-.03,.03-.01,.05-.03,.07-.04,.02-.02,.03-.04,.03-.06,0-.03,.01-.06,.01-.1,0-.03,0-.05,0-.07h0Zm3.05-2.56s0-.02,0-.03c0-.01-.02-.02-.03-.03-.01,0-.03-.01-.06-.02-.02,0-.05,0-.09,0s-.07,0-.09,0c-.02,0-.04,0-.06,.02-.01,0-.02,.02-.03,.03,0,.01,0,.02,0,.03v2c-.16,.2-.31,.34-.45,.44-.14,.1-.28,.15-.42,.15-.11,0-.21-.02-.29-.06-.08-.04-.15-.1-.21-.18-.05-.08-.09-.17-.12-.28-.03-.11-.04-.25-.04-.42v-1.65s0-.02,0-.03c0-.01-.02-.02-.03-.03-.01,0-.03-.01-.06-.02-.02,0-.05,0-.09,0s-.06,0-.09,0c-.02,0-.04,0-.06,.02-.01,0-.02,.02-.03,.03,0,.01,0,.02,0,.03v1.69c0,.2,.02,.37,.05,.51,.03,.14,.09,.26,.17,.37,.08,.11,.18,.19,.3,.25,.13,.06,.28,.09,.46,.09,.15,0,.3-.04,.46-.12,.15-.08,.31-.21,.47-.39v.39s0,.02,0,.03c0,.01,.01,.02,.03,.02,.01,0,.03,.01,.05,.02,.02,0,.05,0,.09,0,.03,0,.06,0,.08,0,.02,0,.04,0,.06-.02,.01,0,.02-.01,.03-.02,0-.01,0-.02,0-.03v-2.79h0Zm3.36,1.1c0-.2-.02-.37-.05-.51-.03-.14-.09-.26-.17-.37-.08-.1-.18-.19-.3-.25-.13-.06-.28-.09-.46-.09-.15,0-.31,.04-.46,.12-.15,.08-.31,.21-.47,.39v-.39s0-.02,0-.03c0-.01-.01-.02-.03-.03-.01,0-.03-.01-.05-.02-.02,0-.05,0-.09,0s-.06,0-.08,0c-.02,0-.04,0-.05,.02-.01,0-.02,.02-.03,.03,0,.01,0,.02,0,.03v2.79s0,.02,0,.03c0,.01,.01,.02,.03,.02,.01,0,.03,.01,.06,.02,.02,0,.05,0,.09,0s.07,0,.09,0c.02,0,.04,0,.06-.02,.01,0,.02-.01,.03-.02,0-.01,0-.02,0-.03v-2c.16-.2,.31-.34,.45-.44,.14-.1,.28-.15,.43-.15,.11,0,.21,.02,.29,.06,.08,.04,.15,.1,.21,.18,.05,.08,.09,.17,.12,.28,.03,.11,.04,.25,.04,.42v1.66s0,.02,0,.03c0,.01,.02,.02,.03,.02,.01,0,.03,.01,.06,.02,.02,0,.05,0,.09,0,.03,0,.06,0,.09,0,.02,0,.04,0,.05-.02,.01,0,.02-.01,.03-.02,0-.01,0-.02,0-.03v-1.69h0Zm3.29-1.13s-.04-.04-.08-.04h-.82c-.06-.01-.13-.03-.2-.04-.07,0-.15-.01-.23-.01-.15,0-.29,.02-.42,.07-.13,.05-.24,.11-.33,.2-.09,.09-.16,.19-.21,.32-.05,.12-.08,.26-.08,.42,0,.13,.02,.24,.05,.33,.03,.09,.08,.18,.14,.26-.07,.08-.13,.17-.18,.26-.05,.1-.07,.21-.07,.34,0,.09,.02,.17,.07,.24,.05,.08,.13,.14,.23,.19-.07,.06-.12,.11-.17,.16-.05,.05-.09,.11-.13,.17-.03,.06-.06,.12-.08,.18-.02,.06-.02,.13-.02,.2,0,.1,.02,.2,.07,.29,.04,.09,.11,.17,.21,.24,.1,.07,.22,.12,.38,.16,.15,.04,.34,.06,.56,.06s.42-.03,.59-.08c.16-.05,.3-.12,.41-.2,.11-.09,.18-.18,.23-.3,.05-.11,.08-.23,.08-.35s-.02-.22-.07-.31-.12-.16-.2-.22c-.08-.06-.18-.11-.29-.14-.11-.03-.23-.05-.36-.05l-.76-.03c-.12,0-.22-.03-.29-.09-.08-.05-.11-.12-.11-.2,0-.07,.01-.13,.04-.19,.03-.05,.06-.1,.1-.14,.06,.05,.15,.09,.26,.13,.11,.04,.23,.05,.36,.05,.15,0,.3-.02,.42-.07,.13-.05,.24-.11,.33-.2,.09-.09,.16-.19,.21-.31,.05-.12,.08-.26,.08-.42,0-.12-.02-.22-.05-.33-.03-.1-.09-.2-.18-.29h.44s.05-.01,.07-.03c.02-.02,.03-.06,.03-.12,0-.05,0-.09-.02-.12h0Zm-.7,1.15c-.03,.08-.07,.16-.12,.22-.05,.06-.12,.11-.21,.15-.08,.04-.18,.06-.29,.06-.21,0-.37-.06-.49-.18-.12-.12-.17-.28-.17-.49,0-.09,.01-.18,.04-.27,.03-.08,.07-.16,.12-.22,.05-.06,.12-.11,.2-.15,.08-.04,.18-.06,.29-.06,.21,0,.38,.06,.49,.18,.12,.12,.17,.28,.17,.5,0,.09-.01,.18-.04,.26h0Zm.29,2.16c-.03,.07-.08,.14-.15,.19-.07,.06-.17,.1-.28,.13-.12,.03-.26,.05-.43,.05-.27,0-.49-.04-.64-.12-.15-.08-.23-.19-.23-.35,0-.05,0-.09,.02-.14,0-.05,.03-.09,.06-.14,.03-.05,.07-.1,.11-.15,.05-.05,.11-.11,.18-.16l.81,.03c.19,0,.33,.05,.44,.12,.11,.07,.17,.18,.17,.31,0,.08-.02,.15-.05,.23h0Z"/><path class="cls-2" d="M40.46,16.23s-.04-.04-.07-.04h-2.1l2-3.11s.04-.06,.06-.09c.02-.03,.03-.05,.04-.07,0-.02,.01-.04,.02-.06,0-.02,0-.04,0-.06v-.1c0-.06-.01-.1-.04-.13-.03-.03-.06-.04-.1-.04h-2.23s-.03,0-.04,.01c-.01,0-.02,.02-.03,.03,0,.01-.01,.03-.02,.05,0,.02,0,.05,0,.08,0,.03,0,.05,0,.07,0,.02,.01,.04,.02,.05,0,.01,.02,.02,.03,.03,.01,0,.03,.01,.04,.01h1.98l-2,3.11s-.04,.07-.06,.09c-.02,.03-.03,.05-.04,.07,0,.02-.01,.04-.02,.06,0,.02,0,.04,0,.05v.1c0,.06,.01,.1,.04,.13,.03,.03,.06,.04,.1,.04h2.36s.03,0,.04-.01c.01,0,.02-.02,.03-.03,0-.01,.01-.03,.02-.05,0-.02,0-.04,0-.07,0-.06,0-.1-.02-.13h0Zm2.99-2.56s0-.02,0-.03c0-.01-.02-.02-.03-.03-.01,0-.03-.01-.06-.02-.02,0-.05,0-.09,0-.04,0-.07,0-.09,0-.02,0-.04,0-.06,.02-.01,0-.02,.02-.03,.03,0,.01,0,.02,0,.03v2c-.16,.2-.31,.34-.45,.44-.14,.1-.28,.15-.42,.15-.11,0-.21-.02-.29-.06-.08-.04-.15-.1-.21-.18-.05-.08-.09-.17-.12-.28-.03-.11-.04-.25-.04-.42v-1.65s0-.02,0-.03c0-.01-.02-.02-.03-.03-.01,0-.03-.01-.06-.02-.02,0-.05,0-.09,0-.03,0-.06,0-.09,0-.02,0-.04,0-.06,.02-.01,0-.02,.02-.03,.03,0,.01,0,.02,0,.03v1.69c0,.2,.02,.37,.05,.51,.03,.14,.09,.26,.17,.37,.08,.11,.18,.19,.3,.25,.13,.06,.28,.09,.46,.09,.15,0,.3-.04,.46-.12,.15-.08,.31-.21,.47-.39v.39s0,.02,0,.03c0,.01,.01,.02,.03,.02,.01,0,.03,.01,.05,.02,.02,0,.05,0,.09,0,.03,0,.06,0,.08,0,.02,0,.04,0,.06-.02,.01,0,.02-.01,.03-.02,0-.01,0-.02,0-.03v-2.79h0Zm3.21,2.74s-.03-.04-.06-.07l-1.24-1.48,1.12-1.05s.05-.06,.06-.08c.01-.02,.02-.04,.02-.06,0-.01,0-.03-.01-.04,0,0-.02-.02-.04-.02-.02,0-.04-.01-.06-.01-.03,0-.06,0-.09,0s-.07,0-.09,0c-.03,0-.05,0-.07,.02-.02,0-.04,.02-.06,.03-.02,.01-.03,.03-.05,.04l-1.17,1.19v-2.57s0-.02,0-.03c0-.01-.02-.02-.03-.03-.01,0-.03-.01-.06-.02-.02,0-.05,0-.09,0-.04,0-.06,0-.09,0-.02,0-.04,0-.06,.02-.01,0-.02,.02-.03,.03,0,.01,0,.02,0,.03v4.16s0,.02,0,.03c0,.01,.01,.02,.03,.02,.01,0,.03,.01,.06,.02,.02,0,.05,0,.09,0,.04,0,.07,0,.09,0,.02,0,.04,0,.06-.02,.01,0,.02-.01,.03-.02,0-.01,0-.02,0-.03v-1.58l1.31,1.58s.03,.03,.04,.04c.01,.01,.03,.02,.05,.02,.02,0,.04,.01,.07,.01,.03,0,.06,0,.1,0,.04,0,.07,0,.1,0,.02,0,.04,0,.06-.02,.01,0,.02-.02,.03-.03,0-.01,0-.02,0-.04,0-.02,0-.03-.02-.05h0Zm2.91-2.74s0-.02,0-.03c0-.01-.02-.02-.03-.03-.01,0-.03-.01-.06-.02-.02,0-.05,0-.09,0-.04,0-.07,0-.09,0-.02,0-.04,0-.06,.02-.01,0-.02,.02-.03,.03,0,.01,0,.02,0,.03v2c-.16,.2-.31,.34-.45,.44-.14,.1-.28,.15-.42,.15-.11,0-.21-.02-.29-.06-.08-.04-.15-.1-.21-.18-.05-.08-.09-.17-.12-.28-.03-.11-.04-.25-.04-.42v-1.65s0-.02,0-.03c0-.01-.02-.02-.03-.03-.01,0-.03-.01-.06-.02-.02,0-.05,0-.09,0-.03,0-.06,0-.09,0-.02,0-.04,0-.06,.02-.01,0-.02,.02-.03,.03,0,.01,0,.02,0,.03v1.69c0,.2,.02,.37,.05,.51,.03,.14,.09,.26,.17,.37,.08,.11,.18,.19,.3,.25,.13,.06,.28,.09,.46,.09,.15,0,.3-.04,.46-.12,.15-.08,.31-.21,.47-.39v.39s0,.02,0,.03c0,.01,.01,.02,.03,.02,.01,0,.03,.01,.05,.02,.02,0,.05,0,.09,0,.03,0,.06,0,.08,0,.02,0,.04,0,.06-.02,.01,0,.02-.01,.03-.02,0-.01,0-.02,0-.03v-2.79h0Zm3.36,1.1c0-.2-.02-.37-.05-.51-.03-.14-.09-.26-.17-.37-.08-.1-.18-.19-.3-.25-.13-.06-.28-.09-.46-.09-.15,0-.31,.04-.46,.12-.15,.08-.31,.21-.47,.39v-.39s0-.02,0-.03c0-.01-.01-.02-.03-.03-.01,0-.03-.01-.05-.02-.02,0-.05,0-.09,0s-.06,0-.08,0c-.02,0-.04,0-.05,.02-.01,0-.02,.02-.03,.03,0,.01,0,.02,0,.03v2.79s0,.02,0,.03c0,.01,.01,.02,.03,.02,.01,0,.03,.01,.06,.02,.02,0,.05,0,.09,0,.04,0,.07,0,.09,0,.02,0,.04,0,.06-.02,.01,0,.02-.01,.03-.02,0-.01,0-.02,0-.03v-2c.16-.2,.31-.34,.45-.44,.14-.1,.28-.15,.43-.15,.11,0,.21,.02,.29,.06,.08,.04,.15,.1,.21,.18,.05,.08,.09,.17,.12,.28,.03,.11,.04,.25,.04,.42v1.66s0,.02,0,.03c0,.01,.02,.02,.03,.02,.01,0,.03,.01,.06,.02,.02,0,.05,0,.09,0,.03,0,.06,0,.09,0,.02,0,.04,0,.06-.02,.01,0,.02-.01,.03-.02,0-.01,0-.02,0-.03v-1.69h0Zm2.91-.85v1.74c0,.16,.01,.29,.04,.41,.03,.12,.07,.21,.13,.29,.06,.08,.14,.13,.24,.17,.1,.04,.21,.06,.35,.06,.04,0,.08,0,.13,0,.04,0,.08-.01,.12-.02,.04,0,.07-.02,.1-.03,.03-.01,.05-.03,.07-.04,.02-.02,.03-.04,.03-.06,0-.03,.01-.06,.01-.1,0-.03,0-.05,0-.07,0-.02,0-.03-.01-.04,0-.01-.01-.02-.02-.02,0,0-.02,0-.03,0-.02,0-.04,0-.06,.02-.02,.01-.05,.02-.08,.03-.03,.01-.07,.02-.11,.03-.04,.01-.08,.02-.13,.02-.16,0-.27-.06-.33-.17-.06-.11-.09-.27-.09-.48v-1.69h.77s.05-.01,.07-.04c.02-.03,.02-.06,.02-.12,0-.03,0-.05,0-.07,0-.02-.01-.04-.02-.05,0-.01-.02-.02-.03-.03-.01,0-.02,0-.04,0h-.77v-.68s0-.02,0-.03c0-.01-.02-.02-.03-.03-.01,0-.03-.01-.06-.02-.02,0-.05,0-.09,0-.04,0-.07,0-.09,0-.02,0-.04,0-.06,.02-.01,0-.02,.02-.03,.03,0,.01,0,.02,0,.03v.68h-1.36v-.33c0-.14,0-.25,.02-.35,.02-.1,.04-.17,.08-.23,.04-.06,.08-.1,.14-.13,.06-.03,.13-.04,.22-.04,.06,0,.12,0,.16,.02,.05,.01,.09,.02,.12,.03,.03,.01,.06,.02,.08,.03s.04,.02,.06,.02c.01,0,.02,0,.03,0,0,0,.01-.01,.02-.02,0-.01,0-.02,.01-.04s0-.04,0-.07c0-.03,0-.05,0-.07s0-.04-.02-.06c0-.02-.02-.03-.03-.04-.01-.01-.03-.02-.06-.04s-.08-.03-.15-.04c-.07-.02-.14-.02-.21-.02-.14,0-.27,.02-.37,.06-.11,.04-.2,.1-.27,.19-.07,.09-.12,.2-.16,.34-.04,.14-.05,.3-.05,.5v.32h-.42s-.03,0-.04,0c-.01,0-.02,.02-.03,.03,0,.01-.01,.03-.02,.05,0,.02,0,.04,0,.07,0,.05,0,.09,.02,.12,.02,.03,.04,.04,.07,.04h.42v2.54s0,.02,0,.03c0,.01,.01,.02,.03,.02,.01,0,.03,.01,.06,.02,.02,0,.05,0,.09,0s.06,0,.09,0c.02,0,.04,0,.06-.02,.01,0,.02-.01,.03-.02,0-.01,0-.02,0-.03v-2.54h1.36Zm3.6,1.5c-.04-.08-.1-.15-.16-.21s-.14-.11-.23-.15c-.09-.04-.17-.08-.26-.12-.09-.03-.18-.07-.26-.1-.09-.03-.16-.08-.23-.12s-.12-.1-.16-.16c-.04-.06-.06-.14-.06-.23,0-.07,.01-.13,.04-.18,.02-.06,.06-.1,.11-.14,.05-.04,.11-.07,.18-.1,.07-.02,.16-.03,.25-.03s.18,.01,.26,.03,.14,.05,.19,.07c.05,.03,.1,.05,.13,.07,.03,.02,.06,.03,.07,.03,.01,0,.02,0,.03-.01,0,0,.02-.02,.02-.03,0-.01,.01-.03,.01-.05,0-.02,0-.04,0-.07s0-.05,0-.06c0-.02,0-.03,0-.04,0-.01,0-.02-.02-.04,0-.01-.02-.03-.04-.04-.02-.02-.05-.04-.09-.06-.04-.02-.09-.04-.15-.06-.06-.02-.12-.03-.19-.04-.07-.01-.14-.02-.21-.02-.16,0-.31,.02-.43,.07-.12,.05-.22,.1-.3,.18-.08,.07-.13,.16-.17,.25-.04,.09-.06,.19-.06,.29,0,.12,.02,.23,.06,.31,.04,.09,.1,.16,.16,.22,.07,.06,.14,.11,.23,.16,.09,.04,.17,.08,.26,.12,.09,.04,.18,.07,.26,.1,.09,.03,.16,.07,.23,.12,.07,.04,.12,.1,.16,.16,.04,.06,.06,.13,.06,.22s-.02,.16-.05,.23c-.03,.06-.08,.12-.13,.16-.06,.04-.13,.07-.2,.09-.08,.02-.16,.03-.26,.03-.12,0-.22-.01-.31-.04-.09-.03-.17-.06-.23-.09-.06-.03-.12-.07-.16-.09-.04-.03-.08-.04-.1-.04-.01,0-.02,0-.03,.01-.01,0-.02,.02-.02,.03,0,.01-.01,.03-.02,.05,0,.02,0,.04,0,.07,0,.05,0,.09,.02,.12,.01,.03,.03,.06,.05,.08,.02,.02,.06,.04,.11,.07,.05,.03,.11,.05,.18,.08,.07,.02,.15,.04,.23,.06,.09,.02,.18,.02,.27,.02,.15,0,.3-.02,.42-.06,.13-.04,.24-.1,.33-.17,.09-.07,.16-.16,.21-.27,.05-.11,.07-.23,.07-.36,0-.12-.02-.22-.06-.3h0Zm2.51,0c-.04-.08-.1-.15-.16-.21-.07-.06-.14-.11-.23-.15-.09-.04-.17-.08-.26-.12-.09-.03-.18-.07-.26-.1-.09-.03-.16-.08-.23-.12-.07-.05-.12-.1-.16-.16-.04-.06-.06-.14-.06-.23,0-.07,.01-.13,.04-.18,.02-.06,.06-.1,.11-.14,.05-.04,.11-.07,.18-.1,.07-.02,.16-.03,.25-.03s.18,.01,.26,.03c.07,.02,.14,.05,.19,.07,.05,.03,.1,.05,.13,.07,.03,.02,.06,.03,.07,.03,.01,0,.02,0,.03-.01,0,0,.02-.02,.02-.03,0-.01,.01-.03,.01-.05,0-.02,0-.04,0-.07s0-.05,0-.06c0-.02,0-.03,0-.04,0-.01,0-.02-.02-.04,0-.01-.02-.03-.04-.04-.02-.02-.05-.04-.09-.06-.04-.02-.09-.04-.15-.06-.06-.02-.12-.03-.19-.04-.07-.01-.14-.02-.21-.02-.16,0-.31,.02-.43,.07-.12,.05-.22,.1-.3,.18-.08,.07-.13,.16-.17,.25-.04,.09-.06,.19-.06,.29,0,.12,.02,.23,.06,.31,.04,.09,.1,.16,.16,.22,.07,.06,.14,.11,.23,.16s.17,.08,.26,.12c.09,.04,.18,.07,.26,.1,.09,.03,.16,.07,.23,.12,.07,.04,.12,.1,.16,.16,.04,.06,.06,.13,.06,.22s-.02,.16-.05,.23c-.03,.06-.08,.12-.13,.16-.06,.04-.13,.07-.2,.09-.08,.02-.16,.03-.26,.03-.12,0-.22-.01-.31-.04-.09-.03-.17-.06-.23-.09-.06-.03-.12-.07-.16-.09-.04-.03-.08-.04-.1-.04-.01,0-.02,0-.03,.01-.01,0-.02,.02-.02,.03,0,.01-.01,.03-.02,.05,0,.02,0,.04,0,.07,0,.05,0,.09,.02,.12,.01,.03,.03,.06,.05,.08,.02,.02,.06,.04,.11,.07,.05,.03,.11,.05,.18,.08,.07,.02,.15,.04,.23,.06,.09,.02,.18,.02,.27,.02,.15,0,.3-.02,.42-.06,.13-.04,.24-.1,.33-.17,.09-.07,.16-.16,.21-.27,.05-.11,.07-.23,.07-.36,0-.12-.02-.22-.06-.3h0Zm2.19,.81s0-.03-.01-.04c0-.01-.01-.02-.02-.02,0,0-.02,0-.03,0-.02,0-.04,0-.06,.02-.02,.01-.05,.02-.08,.03-.03,.01-.07,.02-.11,.03-.04,.01-.08,.02-.13,.02-.16,0-.27-.06-.33-.17-.06-.11-.09-.27-.09-.48v-1.69h.77s.05-.01,.07-.04c.02-.03,.03-.06,.03-.12,0-.03,0-.05,0-.07,0-.02-.01-.04-.02-.05,0-.01-.02-.02-.03-.03s-.02,0-.04,0h-.77v-.68s0-.02,0-.03c0-.01-.02-.02-.03-.03-.01,0-.03-.01-.06-.02-.02,0-.05,0-.09,0-.04,0-.06,0-.09,0-.02,0-.04,0-.06,.02-.01,0-.02,.02-.03,.03,0,.01,0,.02,0,.03v.68h-.42s-.03,0-.04,0c-.01,0-.02,.02-.03,.03,0,.01-.01,.03-.02,.05,0,.02,0,.04,0,.07,0,.05,0,.09,.02,.12,.02,.03,.04,.04,.07,.04h.42v1.74c0,.16,.01,.29,.04,.41,.03,.12,.07,.21,.13,.29,.06,.08,.14,.13,.24,.17,.1,.04,.21,.06,.35,.06,.04,0,.08,0,.13,0,.04,0,.08-.01,.12-.02,.04,0,.07-.02,.1-.03,.03-.01,.05-.03,.07-.04,.02-.02,.03-.04,.03-.06,0-.03,.01-.06,.01-.1,0-.03,0-.05,0-.07h0Zm3.05-2.56s0-.02,0-.03c0-.01-.02-.02-.03-.03-.01,0-.03-.01-.06-.02-.02,0-.05,0-.09,0-.04,0-.07,0-.09,0-.02,0-.04,0-.06,.02-.01,0-.02,.02-.03,.03,0,.01,0,.02,0,.03v2c-.16,.2-.31,.34-.45,.44-.14,.1-.28,.15-.42,.15-.11,0-.21-.02-.29-.06-.08-.04-.15-.1-.21-.18-.05-.08-.09-.17-.12-.28-.03-.11-.04-.25-.04-.42v-1.65s0-.02,0-.03c0-.01-.02-.02-.03-.03-.01,0-.03-.01-.06-.02-.02,0-.05,0-.09,0-.04,0-.06,0-.09,0-.02,0-.04,0-.06,.02-.01,0-.02,.02-.03,.03,0,.01,0,.02,0,.03v1.69c0,.2,.02,.37,.05,.51,.03,.14,.09,.26,.17,.37,.08,.11,.18,.19,.3,.25,.13,.06,.28,.09,.46,.09,.15,0,.3-.04,.46-.12,.15-.08,.31-.21,.47-.39v.39s0,.02,0,.03c0,.01,.01,.02,.03,.02,.01,0,.03,.01,.05,.02,.02,0,.05,0,.09,0,.03,0,.06,0,.08,0,.02,0,.04,0,.06-.02,.01,0,.02-.01,.03-.02,0-.01,0-.02,0-.03v-2.79h0Zm3.34-1.35s0-.02,0-.03c0-.01-.02-.02-.03-.02-.01,0-.03-.01-.05-.02-.02,0-.05,0-.09,0s-.06,0-.09,0c-.02,0-.04,0-.06,.02-.01,0-.02,.01-.03,.02,0,.01,0,.02,0,.03v1.68c-.14-.15-.27-.26-.41-.33-.14-.08-.29-.11-.46-.11-.2,0-.37,.04-.51,.11-.15,.07-.27,.17-.37,.31-.1,.13-.18,.3-.23,.49-.05,.19-.08,.4-.08,.64,0,.2,.02,.39,.06,.57,.04,.18,.11,.34,.2,.47,.09,.13,.21,.24,.35,.32,.14,.08,.31,.12,.51,.12,.19,0,.36-.05,.52-.14,.16-.09,.31-.22,.46-.38v.4s0,.03,.01,.04c0,.01,.02,.02,.03,.02,.01,0,.03,.01,.05,.01,.02,0,.05,0,.08,0s.06,0,.08,0c.02,0,.04,0,.05-.01,.01,0,.02-.01,.03-.02,0-.01,0-.02,0-.04v-4.14h0Zm-.37,3.35c-.09,.11-.18,.2-.25,.28-.08,.08-.16,.14-.23,.18-.07,.05-.15,.08-.22,.1-.07,.02-.14,.03-.22,.03-.15,0-.27-.03-.37-.1-.1-.07-.18-.16-.24-.27-.06-.11-.1-.24-.13-.39-.02-.15-.04-.3-.04-.45,0-.14,.01-.29,.04-.43,.03-.14,.08-.27,.14-.38,.06-.11,.15-.2,.25-.27,.1-.07,.22-.1,.36-.1,.16,0,.31,.05,.45,.15,.14,.1,.29,.24,.45,.43v1.22h0Zm1.83-2s0-.02,0-.03c0-.01-.02-.02-.03-.03-.01,0-.03-.01-.05-.02-.02,0-.05,0-.09,0s-.06,0-.09,0c-.02,0-.04,0-.06,.02-.01,0-.02,.02-.03,.03,0,.01,0,.02,0,.03v2.79s0,.02,0,.03c0,.01,.01,.02,.03,.02,.01,0,.03,.01,.06,.02,.02,0,.05,0,.09,0s.07,0,.09,0c.02,0,.04,0,.05-.02,.01,0,.02-.01,.03-.02,0-.01,0-.02,0-.03v-2.79h0Zm0-1.14s-.1-.05-.19-.05-.16,.02-.19,.05c-.03,.03-.05,.1-.05,.2s.02,.16,.05,.2c.03,.03,.1,.05,.19,.05s.16-.02,.19-.05c.04-.03,.05-.1,.05-.2s-.02-.16-.05-.2h0Zm3.36,2.32c0-.17-.02-.34-.07-.49-.04-.16-.11-.29-.21-.41-.1-.12-.22-.21-.37-.28-.15-.07-.33-.1-.54-.1-.2,0-.37,.03-.53,.1-.16,.07-.3,.17-.41,.3-.11,.13-.2,.29-.26,.48-.06,.19-.09,.4-.09,.64s.03,.46,.09,.65c.06,.19,.14,.34,.26,.47,.11,.13,.25,.22,.42,.29,.17,.06,.36,.1,.57,.1,.13,0,.25-.01,.37-.03,.11-.02,.21-.04,.3-.07,.09-.03,.16-.05,.21-.08,.05-.03,.09-.04,.1-.05,.01-.01,.02-.02,.02-.03,0-.01,.01-.02,.01-.03,0-.01,0-.02,0-.04,0-.01,0-.03,0-.04,0-.03,0-.06,0-.08,0-.02,0-.04-.01-.05,0-.01-.01-.02-.02-.03-.01,0-.02,0-.03,0-.02,0-.05,.01-.1,.03-.05,.02-.11,.05-.19,.08-.08,.03-.16,.05-.27,.08-.1,.02-.22,.03-.35,.03-.18,0-.34-.03-.46-.08-.13-.05-.23-.13-.31-.23-.08-.1-.13-.22-.17-.36-.03-.14-.05-.3-.05-.47h1.9s.08-.01,.11-.04c.04-.03,.06-.08,.06-.15v-.07h0Zm-2.07-.03c0-.12,.03-.24,.07-.36,.04-.11,.1-.21,.17-.3s.16-.16,.27-.21c.11-.05,.23-.08,.37-.08,.27,0,.48,.08,.62,.25,.14,.17,.21,.4,.2,.69h-1.7Zm5.25-.04c0-.2-.02-.37-.05-.51-.03-.14-.09-.26-.17-.37-.08-.1-.18-.19-.3-.25-.12-.06-.28-.09-.46-.09-.15,0-.31,.04-.46,.12-.15,.08-.31,.21-.47,.39v-.39s0-.02,0-.03c0-.01-.01-.02-.03-.03-.01,0-.03-.01-.05-.02-.02,0-.05,0-.09,0s-.06,0-.09,0c-.02,0-.04,0-.05,.02-.01,0-.02,.02-.03,.03,0,.01,0,.02,0,.03v2.79s0,.02,0,.03c0,.01,.01,.02,.03,.02,.01,0,.03,.01,.06,.02,.02,0,.05,0,.09,0s.07,0,.09,0c.02,0,.04,0,.06-.02,.01,0,.02-.01,.03-.02,0-.01,0-.02,0-.03v-2c.16-.2,.31-.34,.45-.44,.14-.1,.28-.15,.43-.15,.11,0,.21,.02,.29,.06,.08,.04,.15,.1,.21,.18,.05,.08,.09,.17,.12,.28,.03,.11,.04,.25,.04,.42v1.66s0,.02,0,.03c0,.01,.02,.02,.03,.02,.01,0,.03,.01,.06,.02,.02,0,.05,0,.09,0s.06,0,.09,0c.02,0,.04,0,.06-.02,.01,0,.02-.01,.03-.02,0-.01,0-.02,0-.03v-1.69h0Zm4.82-1.1s0-.02,0-.03c0-.01-.02-.02-.03-.03-.01,0-.03-.01-.06-.02-.02,0-.05,0-.09,0s-.07,0-.09,0c-.02,0-.04,0-.06,.02-.01,0-.02,.02-.03,.03,0,.01,0,.02,0,.03v2c-.16,.2-.31,.34-.45,.44-.14,.1-.28,.15-.42,.15-.11,0-.21-.02-.29-.06-.08-.04-.15-.1-.21-.18-.05-.08-.09-.17-.12-.28-.03-.11-.04-.25-.04-.42v-1.65s0-.02,0-.03c0-.01-.02-.02-.03-.03-.01,0-.03-.01-.06-.02-.02,0-.05,0-.09,0s-.06,0-.09,0c-.02,0-.04,0-.06,.02-.01,0-.02,.02-.03,.03,0,.01,0,.02,0,.03v1.69c0,.2,.02,.37,.05,.51,.03,.14,.09,.26,.17,.37,.08,.11,.18,.19,.3,.25,.13,.06,.28,.09,.46,.09,.15,0,.3-.04,.46-.12,.15-.08,.31-.21,.47-.39v.39s0,.02,0,.03c0,.01,.01,.02,.03,.02,.01,0,.03,.01,.05,.02,.02,0,.05,0,.09,0,.03,0,.06,0,.08,0,.02,0,.04,0,.06-.02,.01,0,.02-.01,.03-.02,0-.01,0-.02,0-.03v-2.79h0Zm3.36,1.1c0-.2-.02-.37-.05-.51-.03-.14-.09-.26-.17-.37-.08-.1-.18-.19-.3-.25-.13-.06-.28-.09-.46-.09-.15,0-.31,.04-.46,.12-.15,.08-.31,.21-.47,.39v-.39s0-.02,0-.03c0-.01-.01-.02-.03-.03-.01,0-.03-.01-.05-.02-.02,0-.05,0-.09,0s-.06,0-.08,0c-.02,0-.04,0-.05,.02-.01,0-.02,.02-.03,.03,0,.01,0,.02,0,.03v2.79s0,.02,0,.03c0,.01,.01,.02,.03,.02,.01,0,.03,.01,.06,.02,.02,0,.05,0,.09,0s.07,0,.09,0c.02,0,.04,0,.06-.02,.01,0,.02-.01,.03-.02,0-.01,0-.02,0-.03v-2c.16-.2,.31-.34,.45-.44,.14-.1,.28-.15,.43-.15,.11,0,.21,.02,.29,.06,.08,.04,.15,.1,.21,.18,.05,.08,.09,.17,.12,.28,.03,.11,.04,.25,.04,.42v1.66s0,.02,0,.03c0,.01,.02,.02,.03,.02,.01,0,.03,.01,.06,.02,.02,0,.05,0,.09,0,.03,0,.06,0,.09,0,.02,0,.04,0,.05-.02,.01,0,.02-.01,.03-.02,0-.01,0-.02,0-.03v-1.69h0Zm3.33-2.45s0-.02,0-.03c0-.01-.02-.02-.03-.02-.01,0-.03-.01-.06-.02-.02,0-.05,0-.09,0-.03,0-.06,0-.09,0-.02,0-.04,0-.06,.02-.01,0-.02,.01-.03,.02,0,.01,0,.02,0,.03v1.68c-.14-.15-.27-.26-.41-.33-.14-.08-.29-.11-.46-.11-.2,0-.37,.04-.52,.11-.15,.07-.27,.17-.37,.31-.1,.13-.18,.3-.23,.49-.05,.19-.08,.4-.08,.64,0,.2,.02,.39,.06,.57,.04,.18,.11,.34,.2,.47,.09,.13,.21,.24,.35,.32,.14,.08,.31,.12,.52,.12,.19,0,.36-.05,.52-.14,.16-.09,.31-.22,.46-.38v.4s0,.03,.01,.04c0,.01,.02,.02,.03,.02,.01,0,.03,.01,.05,.01,.02,0,.05,0,.08,0s.06,0,.08,0c.02,0,.04,0,.05-.01,.01,0,.02-.01,.03-.02,0-.01,0-.02,0-.04v-4.14h0Zm-.37,3.35c-.09,.11-.17,.2-.25,.28-.08,.08-.16,.14-.23,.18-.07,.05-.15,.08-.22,.1-.07,.02-.14,.03-.22,.03-.15,0-.27-.03-.37-.1-.1-.07-.18-.16-.24-.27-.06-.11-.1-.24-.13-.39-.02-.15-.04-.3-.04-.45,0-.14,.01-.29,.04-.43,.03-.14,.08-.27,.14-.38,.06-.11,.15-.2,.25-.27,.1-.07,.22-.1,.36-.1,.16,0,.31,.05,.45,.15,.14,.1,.29,.24,.45,.43v1.22h0Z"/><path class="cls-2" d="M38.65,5.89s0-.02,0-.03c0-.01-.02-.02-.03-.02-.01,0-.03-.01-.06-.02-.02,0-.05,0-.09,0-.03,0-.06,0-.08,0-.02,0-.04,0-.06,.02-.02,0-.03,.01-.03,.02,0,.01-.01,.02-.01,.03v3.87s0,.02,0,.03c0,.01,.02,.02,.03,.02,.01,0,.03,.01,.06,.02,.02,0,.05,0,.09,0,.04,0,.07,0,.09,0,.02,0,.04,0,.06-.02,.01,0,.02-.01,.03-.02,0-.01,0-.02,0-.03v-3.87h0Zm3.42,2.18c0-.2-.02-.37-.05-.51-.03-.14-.09-.26-.17-.37-.08-.1-.18-.19-.3-.25-.13-.06-.28-.09-.46-.09-.15,0-.31,.04-.46,.12-.15,.08-.31,.21-.47,.39v-.39s0-.02,0-.03c0-.01-.01-.02-.03-.03-.01,0-.03-.01-.05-.02-.02,0-.05,0-.09,0s-.06,0-.08,0c-.02,0-.04,0-.05,.02-.01,0-.02,.02-.03,.03,0,.01,0,.02,0,.03v2.79s0,.02,0,.03c0,.01,.01,.02,.03,.02,.01,0,.03,.01,.06,.02,.02,0,.05,0,.09,0,.04,0,.07,0,.09,0,.02,0,.04,0,.06-.02,.01,0,.02-.01,.03-.02,0-.01,0-.02,0-.03v-2c.16-.2,.31-.34,.45-.44,.14-.1,.28-.15,.43-.15,.11,0,.21,.02,.29,.06,.08,.04,.15,.1,.21,.18,.05,.08,.09,.17,.12,.28,.03,.11,.04,.25,.04,.42v1.66s0,.02,0,.03c0,.01,.02,.02,.03,.02,.01,0,.03,.01,.06,.02,.02,0,.05,0,.09,0,.03,0,.06,0,.09,0,.02,0,.04,0,.06-.02,.01,0,.02-.01,.03-.02,0-.01,0-.02,0-.03v-1.69h0Zm2.66,.65c-.04-.08-.1-.15-.16-.21-.07-.06-.14-.11-.23-.15-.09-.04-.17-.08-.26-.12-.09-.03-.18-.07-.26-.1-.09-.03-.16-.08-.23-.12-.07-.05-.12-.1-.16-.16-.04-.06-.06-.14-.06-.23,0-.07,.01-.13,.04-.18,.02-.06,.06-.1,.11-.14,.05-.04,.11-.07,.18-.1,.07-.02,.16-.03,.25-.03s.18,.01,.26,.03c.07,.02,.14,.05,.19,.07,.05,.03,.1,.05,.13,.07,.03,.02,.06,.03,.07,.03,.01,0,.02,0,.03-.01,0,0,.02-.02,.02-.03,0-.01,.01-.03,.01-.05,0-.02,0-.04,0-.07s0-.05,0-.06c0-.02,0-.03,0-.04,0-.01,0-.02-.02-.04s-.02-.03-.04-.04c-.02-.02-.05-.04-.09-.06-.04-.02-.09-.04-.15-.06-.06-.02-.12-.03-.19-.04-.07-.01-.14-.02-.21-.02-.16,0-.31,.02-.43,.07-.12,.05-.22,.1-.3,.18-.08,.07-.13,.16-.17,.25-.04,.09-.06,.19-.06,.29,0,.12,.02,.23,.06,.31,.04,.09,.1,.16,.16,.22,.07,.06,.14,.11,.23,.16,.09,.04,.17,.08,.26,.12,.09,.04,.18,.07,.26,.1,.09,.03,.16,.07,.23,.12,.07,.04,.12,.1,.16,.16,.04,.06,.06,.13,.06,.22s-.02,.16-.05,.23c-.03,.06-.08,.12-.13,.16-.06,.04-.13,.07-.2,.09-.08,.02-.16,.03-.26,.03-.12,0-.22-.01-.31-.04-.09-.03-.17-.06-.23-.09-.06-.03-.12-.07-.16-.09-.04-.03-.08-.04-.1-.04-.01,0-.02,0-.03,.01-.01,0-.02,.02-.02,.03,0,.01-.01,.03-.02,.05,0,.02,0,.04,0,.07,0,.05,0,.09,.02,.12,.01,.03,.03,.06,.05,.08,.02,.02,.06,.04,.11,.07,.05,.03,.11,.05,.18,.08,.07,.02,.15,.04,.23,.06,.09,.02,.18,.02,.27,.02,.15,0,.29-.02,.42-.06,.13-.04,.24-.1,.33-.17,.09-.07,.16-.16,.21-.27,.05-.11,.07-.23,.07-.36,0-.12-.02-.22-.06-.3h0Zm1.33-1.81v-.68s0-.02,0-.03c0-.01-.02-.02-.03-.03-.01,0-.03-.01-.06-.02-.02,0-.05,0-.09,0-.04,0-.06,0-.09,0-.02,0-.04,0-.06,.02-.01,0-.02,.02-.03,.03,0,.01,0,.02,0,.03v.68h-.42s-.03,0-.04,0c-.01,0-.02,.02-.03,.03,0,.01-.01,.03-.02,.05,0,.02,0,.04,0,.07,0,.05,0,.09,.02,.12,.02,.03,.04,.04,.07,.04h.42v1.74c0,.16,.01,.29,.04,.41s.07,.21,.13,.29c.06,.08,.14,.13,.24,.17,.1,.04,.21,.06,.35,.06,.04,0,.08,0,.13,0,.04,0,.08-.01,.12-.02s.07-.02,.1-.03c.03-.01,.05-.03,.07-.04,.02-.02,.03-.04,.03-.06,0-.03,.01-.06,.01-.1,0-.03,0-.05,0-.07,0-.02,0-.03-.01-.04,0-.01-.01-.02-.02-.02,0,0-.02,0-.03,0-.02,0-.04,0-.06,.02-.02,.01-.05,.02-.08,.03-.03,.01-.07,.02-.11,.03-.04,.01-.08,.02-.13,.02-.16,0-.27-.06-.33-.17-.06-.11-.09-.27-.09-.48v-1.69h1.54v2.54s0,.02,0,.03c0,.01,.02,.02,.03,.02,.01,0,.03,.01,.06,.02,.02,0,.05,0,.09,0,.03,0,.06,0,.09,0,.02,0,.04,0,.06-.02,.01,0,.02-.01,.03-.02,0-.01,0-.02,0-.03v-2.72s0-.07-.02-.1c-.02-.02-.05-.04-.1-.04h-1.79Zm1.91-1.07s-.1-.05-.19-.05-.16,.02-.19,.05-.05,.1-.05,.2,.02,.16,.05,.2c.03,.03,.1,.05,.19,.05s.16-.02,.19-.05c.03-.03,.05-.1,.05-.2s-.02-.16-.05-.2h0Zm2.43,3.7s0-.03-.01-.04c0-.01-.01-.02-.02-.02,0,0-.02,0-.03,0-.02,0-.04,0-.06,.02-.02,.01-.05,.02-.08,.03-.03,.01-.07,.02-.11,.03-.04,.01-.08,.02-.13,.02-.16,0-.27-.06-.33-.17-.06-.11-.09-.27-.09-.48v-1.69h.77s.05-.01,.07-.04c.02-.03,.03-.06,.03-.12,0-.03,0-.05,0-.07,0-.02-.01-.04-.02-.05,0-.01-.02-.02-.03-.03-.01,0-.02,0-.04,0h-.77v-.68s0-.02,0-.03c0-.01-.02-.02-.03-.03-.01,0-.03-.01-.06-.02-.02,0-.05,0-.09,0-.03,0-.06,0-.09,0-.02,0-.04,0-.06,.02-.01,0-.02,.02-.03,.03,0,.01,0,.02,0,.03v.68h-.42s-.03,0-.04,0c-.01,0-.02,.02-.03,.03,0,.01-.01,.03-.02,.05,0,.02,0,.04,0,.07,0,.05,0,.09,.02,.12,.02,.03,.04,.04,.07,.04h.42v1.74c0,.16,.01,.29,.04,.41,.03,.12,.07,.21,.13,.29,.06,.08,.14,.13,.24,.17,.1,.04,.21,.06,.35,.06,.04,0,.08,0,.13,0,.04,0,.08-.01,.12-.02,.04,0,.07-.02,.1-.03,.03-.01,.05-.03,.07-.04,.02-.02,.03-.04,.03-.06,0-.03,.01-.06,.01-.1,0-.03,0-.05,0-.07h0Zm3.05-2.56s0-.02,0-.03c0-.01-.02-.02-.03-.03-.01,0-.03-.01-.06-.02-.02,0-.05,0-.09,0-.04,0-.07,0-.09,0-.02,0-.04,0-.06,.02-.01,0-.02,.02-.03,.03,0,.01,0,.02,0,.03v2c-.16,.2-.31,.34-.45,.44-.14,.1-.28,.15-.42,.15-.11,0-.21-.02-.29-.06-.08-.04-.15-.1-.21-.18-.05-.08-.09-.17-.12-.28-.03-.11-.04-.25-.04-.42v-1.65s0-.02,0-.03c0-.01-.02-.02-.03-.03-.01,0-.03-.01-.06-.02-.02,0-.05,0-.09,0-.03,0-.06,0-.09,0-.02,0-.04,0-.06,.02-.01,0-.02,.02-.03,.03,0,.01,0,.02,0,.03v1.69c0,.2,.02,.37,.05,.51,.03,.14,.09,.26,.17,.37,.08,.11,.18,.19,.3,.25,.13,.06,.28,.09,.46,.09,.15,0,.3-.04,.46-.12,.15-.08,.31-.21,.47-.39v.39s0,.02,0,.03c0,.01,.01,.02,.03,.02,.01,0,.03,.01,.05,.02,.02,0,.05,0,.09,0,.03,0,.06,0,.08,0,.02,0,.04,0,.06-.02,.01,0,.02-.01,.03-.02,0-.01,0-.02,0-.03v-2.79h0Zm2.43,2.56s0-.03-.01-.04c0-.01-.01-.02-.02-.02,0,0-.02,0-.03,0-.02,0-.04,0-.06,.02-.02,.01-.05,.02-.08,.03-.03,.01-.07,.02-.11,.03-.04,.01-.08,.02-.13,.02-.16,0-.27-.06-.33-.17-.06-.11-.09-.27-.09-.48v-1.69h.77s.05-.01,.07-.04c.02-.03,.03-.06,.03-.12,0-.03,0-.05,0-.07,0-.02-.01-.04-.02-.05,0-.01-.02-.02-.03-.03-.01,0-.02,0-.04,0h-.77v-.68s0-.02,0-.03c0-.01-.02-.02-.03-.03-.01,0-.03-.01-.06-.02-.02,0-.05,0-.09,0-.03,0-.06,0-.09,0-.02,0-.04,0-.06,.02s-.02,.02-.03,.03c0,.01,0,.02,0,.03v.68h-.42s-.03,0-.04,0c-.01,0-.02,.02-.03,.03,0,.01-.01,.03-.02,.05,0,.02,0,.04,0,.07,0,.05,0,.09,.02,.12,.02,.03,.04,.04,.07,.04h.42v1.74c0,.16,.01,.29,.04,.41,.03,.12,.07,.21,.13,.29,.06,.08,.14,.13,.24,.17,.1,.04,.21,.06,.35,.06,.04,0,.08,0,.13,0,.04,0,.08-.01,.12-.02,.04,0,.07-.02,.1-.03,.03-.01,.05-.03,.07-.04,.02-.02,.03-.04,.03-.06,0-.03,.01-.06,.01-.1,0-.03,0-.05,0-.07h0Zm3.73-3.82s0-.04-.02-.06c0-.02-.02-.03-.03-.04-.01-.01-.03-.02-.07-.04-.03-.02-.08-.03-.15-.04-.07-.01-.13-.02-.2-.02-.14,0-.27,.02-.37,.06-.11,.04-.2,.1-.27,.19-.07,.09-.12,.2-.16,.34-.04,.14-.05,.3-.05,.5v.32h-.42s-.03,0-.04,0c-.01,0-.02,.02-.03,.03,0,.01-.01,.03-.02,.05,0,.02,0,.04,0,.07,0,.05,0,.09,.02,.12,.02,.03,.04,.04,.07,.04h.42v2.54s0,.02,0,.03c0,.01,.01,.02,.03,.02,.01,0,.03,.01,.06,.02,.02,0,.05,0,.09,0s.06,0,.09,0c.02,0,.04,0,.06-.02,.01,0,.02-.01,.03-.02,0-.01,0-.02,0-.03v-2.54h.68s.05-.01,.06-.04c.02-.03,.02-.06,.02-.12,0-.03,0-.05,0-.07,0-.02-.01-.04-.02-.05,0-.01-.02-.02-.03-.03-.01,0-.02,0-.04,0h-.68v-.33c0-.14,0-.25,.02-.35,.02-.1,.04-.17,.08-.23,.04-.06,.09-.1,.14-.13,.06-.03,.13-.04,.22-.04,.06,0,.12,0,.16,.02,.05,.01,.09,.02,.12,.03,.03,.01,.06,.02,.08,.03,.02,.01,.04,.02,.06,.02,.01,0,.02,0,.03,0,0,0,.01-.01,.02-.02,0-.01,0-.02,.01-.04,0-.02,0-.04,0-.07,0-.03,0-.05,0-.07h0Zm2.76,1.26s0-.02,0-.03c0-.01-.02-.02-.03-.03-.01,0-.03-.01-.06-.02-.02,0-.05,0-.09,0-.04,0-.07,0-.09,0-.02,0-.04,0-.06,.02-.01,0-.02,.02-.03,.03,0,.01,0,.02,0,.03v2c-.16,.2-.31,.34-.45,.44-.14,.1-.28,.15-.42,.15-.11,0-.21-.02-.29-.06-.08-.04-.15-.1-.21-.18s-.09-.17-.12-.28c-.03-.11-.04-.25-.04-.42v-1.65s0-.02,0-.03c0-.01-.02-.02-.03-.03-.01,0-.03-.01-.06-.02-.02,0-.05,0-.09,0-.03,0-.06,0-.09,0-.02,0-.04,0-.06,.02-.01,0-.02,.02-.03,.03,0,.01,0,.02,0,.03v1.69c0,.2,.02,.37,.05,.51,.03,.14,.09,.26,.17,.37,.08,.11,.18,.19,.3,.25,.13,.06,.28,.09,.46,.09,.15,0,.3-.04,.46-.12,.15-.08,.31-.21,.47-.39v.39s0,.02,0,.03c0,.01,.01,.02,.03,.02,.01,0,.03,.01,.05,.02,.02,0,.05,0,.09,0,.03,0,.06,0,.08,0,.02,0,.04,0,.06-.02,.01,0,.02-.01,.03-.02,0-.01,0-.02,0-.03v-2.79h0Zm-1.46-1.07s-.09-.05-.18-.05-.15,.02-.18,.05c-.03,.03-.05,.1-.05,.19s.02,.16,.05,.19c.03,.03,.09,.05,.18,.05s.15-.02,.18-.05,.05-.1,.05-.19-.02-.16-.05-.19h0Zm1.03,0s-.09-.05-.18-.05-.15,.02-.18,.05c-.03,.03-.05,.1-.05,.19s.02,.16,.05,.19c.03,.03,.09,.05,.18,.05s.15-.02,.18-.05c.03-.03,.05-.1,.05-.19s-.02-.16-.05-.19h0Zm3.07,1.14s0-.03,0-.05c0-.01,0-.02-.01-.03,0,0-.01-.02-.02-.02-.01,0-.03-.02-.07-.03-.03-.01-.07-.02-.11-.03-.04,0-.08-.01-.11-.02-.04,0-.07,0-.09,0-.06,0-.12,0-.18,.02-.06,.01-.12,.04-.18,.08-.06,.04-.13,.1-.19,.17-.07,.07-.14,.17-.22,.28v-.44s0-.02,0-.03c0-.01-.01-.02-.03-.03-.01,0-.03-.01-.05-.02-.02,0-.05,0-.09,0s-.06,0-.08,0c-.02,0-.04,0-.05,.02-.01,0-.02,.02-.03,.03,0,.01,0,.02,0,.03v2.79s0,.02,0,.03c0,.01,.01,.02,.03,.02,.01,0,.03,.01,.06,.02,.02,0,.05,0,.09,0,.04,0,.07,0,.09,0,.02,0,.04,0,.06-.02,.01,0,.02-.01,.03-.02,0-.01,0-.02,0-.03v-1.89c.08-.13,.15-.23,.21-.32,.06-.09,.13-.16,.18-.21,.06-.05,.11-.09,.17-.11,.05-.02,.11-.04,.16-.04,.05,0,.09,0,.13,.01,.04,0,.08,.02,.11,.03,.03,.01,.06,.02,.09,.03,.02,0,.05,.01,.06,.01,.01,0,.02,0,.03-.01,0,0,.01-.02,.02-.03,0-.01,0-.03,.01-.05,0-.02,0-.05,0-.08s0-.06,0-.08h0Z"/></g></g></svg>
